<?xml version="1.0" encoding="utf-8"?>
<!-- Generator: Adobe Illustrator 19.0.0, SVG Export Plug-In . SVG Version: 6.00 Build 0)  -->
<svg version="1.1" id="Layer_1" xmlns="http://www.w3.org/2000/svg" xmlns:xlink="http://www.w3.org/1999/xlink" x="0px" y="0px"
	 viewBox="0 0 155.9 155.9" style="enable-background:new 0 0 155.9 155.9;" xml:space="preserve">
<style type="text/css">
	.st0{enable-background:new    ;}
</style>
<g id="XMLID_1_">
	<g id="XMLID_3_" class="st0">
		<path id="XMLID_98_" d="M14.6,13.2l-2,2c-0.6-0.2-1.2-0.5-1.7-1c-1.2-1.2-1.2-3,0-4.2s3-1.2,4.2,0.1c0.4,0.4,0.7,0.9,0.8,1.4
			L15.2,12c-0.1-0.5-0.4-1-0.7-1.4c-0.9-0.9-2.2-0.9-3-0.1c-0.9,0.9-0.8,2.1,0,2.9c0.3,0.3,0.6,0.5,0.9,0.6l1-1l-1-1l0.7-0.4
			L14.6,13.2z"/>
		<path id="XMLID_100_" d="M16.1,17.6l-0.3,0.7c-0.6,0-1.2-0.3-1.6-0.7c-0.8-0.8-0.8-2-0.1-2.8c0.7-0.7,2-0.7,2.7,0
			c0.7,0.7,0.7,1.6,0.1,2.3l-2.6-1.4c-0.1,0.4,0,0.9,0.3,1.2C15.1,17.4,15.5,17.6,16.1,17.6z M14.7,15.3l2,1c0.1-0.4,0-0.7-0.2-1
			C15.9,14.8,15.2,14.9,14.7,15.3z"/>
		<path id="XMLID_103_" d="M18.9,17.9l-1.2,1.2c-0.2,0.2-0.2,0.5,0,0.7c0.1,0.1,0.3,0.2,0.4,0.3l-0.5,0.5c-0.2-0.1-0.3-0.2-0.5-0.4
			c-0.5-0.5-0.5-1.1,0.1-1.7l1.3-1.3l-0.4-0.4l0.6-0.4l0.3,0.3l0.5-0.5l0.9,0.2l-0.9,0.9l0.7,0.7l-0.5,0.5L18.9,17.9z"/>
		<path id="XMLID_105_" d="M24.6,19.5l-4.1,4.1L19.8,23l3.1-3.1l-1.2-0.4l0.5-0.7L24.6,19.5z"/>
		<path id="XMLID_107_" d="M25.1,25.7c-0.7,0.7-1.9,0.8-2.8-0.1c-0.4-0.4-0.6-1-0.7-1.5l0.7-0.4c0.1,0.4,0.2,0.9,0.6,1.3
			c0.5,0.5,1.2,0.4,1.6,0c0.4-0.4,0.5-1.1-0.1-1.7c-0.3-0.3-0.7-0.5-1.2-0.6l2.4-2.1l2.1,2.1l-0.7,0.4l-1.5-1.5l-1,0.9
			c0.2,0.1,0.4,0.2,0.5,0.4C25.7,23.8,25.8,24.9,25.1,25.7z"/>
		<path id="XMLID_109_" d="M27.4,24.7c0.6-0.6,1.4-0.8,2-0.2s0.4,1.3-0.2,2c-0.7,0.7-1.4,0.8-2,0.2C26.7,26.1,26.8,25.3,27.4,24.7z
			 M24.9,27.8l7-0.7l0.1,0.6l-7,0.7L24.9,27.8z M28.7,26c0.4-0.4,0.6-0.8,0.2-1.1c-0.3-0.3-0.7-0.1-1.1,0.2
			c-0.4,0.4-0.6,0.8-0.2,1.1C27.9,26.5,28.4,26.4,28.7,26z M27.8,28.9c0.6-0.6,1.4-0.8,2-0.2s0.4,1.3-0.2,2c-0.6,0.6-1.4,0.8-2,0.2
			C27.1,30.3,27.2,29.5,27.8,28.9z M29.2,30.3c0.4-0.4,0.6-0.8,0.2-1.1c-0.3-0.3-0.7-0.1-1.1,0.2s-0.6,0.8-0.2,1.1
			C28.3,30.8,28.8,30.6,29.2,30.3z"/>
		<path id="XMLID_115_" d="M31.6,32.2c0.7-0.7,2-0.7,2.8,0.1c0.8,0.8,0.7,2,0,2.7s-2,0.7-2.7,0C30.8,34.1,30.8,32.9,31.6,32.2z
			 M33.8,34.4c0.5-0.5,0.5-1.2,0.1-1.7c-0.5-0.5-1.2-0.4-1.7,0.1c-0.5,0.5-0.5,1.2-0.1,1.7C32.6,34.9,33.3,34.9,33.8,34.4z"/>
		<path id="XMLID_118_" d="M39.1,36.2l-0.5,0.5l0.6,0.6l-0.5,0.5l-0.6-0.6l-2.1,2.1l-0.6-0.6l2.1-2.1l-1.1-1.1l-2.1,2.1l-0.6-0.6
			l2.1-2.1l-0.4-0.4L36,34l0.4,0.4l0.6-0.6c0.7-0.7,1.5-0.6,2.1,0.1l0.1,0.1l-0.5,0.5l-0.1-0.1c-0.3-0.3-0.7-0.3-1,0.1L37,34.9
			l1.1,1.1l0.6-0.6c0.7-0.7,1.5-0.6,2.1,0.1l0.1,0.1l-0.5,0.5L40.4,36C39.9,35.8,39.5,35.8,39.1,36.2z"/>
		<path id="XMLID_120_" d="M43.2,41.2l-5.6,2.1l-0.6-0.6l2.3-0.7l1.2-3.3l0.6,0.6l-1,2.5l2.5-1L43.2,41.2L43.2,41.2z"/>
		<path id="XMLID_122_" d="M42,42.6c0.7-0.7,2-0.7,2.8,0.1s0.7,2,0,2.7s-2,0.7-2.7,0C41.3,44.6,41.3,43.4,42,42.6z M44.2,44.8
			c0.5-0.5,0.5-1.2,0.1-1.7c-0.5-0.5-1.2-0.4-1.7,0.1c-0.5,0.5-0.5,1.2-0.1,1.7C43,45.3,43.7,45.3,44.2,44.8z"/>
		<path id="XMLID_125_" d="M49,46.9l-2.6,2.6L45.8,49l0.3-0.3c-0.4,0.1-0.9-0.1-1.2-0.4c-0.6-0.6-0.6-1.4,0.1-2l1.5-1.5l0.6,0.5
			l-1.5,1.5c-0.4,0.4-0.4,0.9-0.1,1.2c0.4,0.4,0.9,0.4,1.3-0.1l1.4-1.4L49,46.9z"/>
		<path id="XMLID_127_" d="M51.2,49.1l-0.6,0.6c-0.6-0.6-1-0.6-1.6,0L47.8,51l-0.6-0.6l2.5-2.5l0.6,0.5l-0.4,0.4
			C50.4,48.6,50.8,48.7,51.2,49.1z"/>
		<path id="XMLID_129_" d="M54.1,54.1l-1.5,1.5L52,55.1l1.5-1.5c0.4-0.4,0.4-0.9,0.1-1.2c-0.4-0.4-0.9-0.4-1.3,0.1L50.8,54l-0.6-0.6
			l2.5-2.5l0.6,0.5l-0.3,0.3c0.4-0.1,0.9,0.1,1.2,0.4C54.8,52.7,54.7,53.5,54.1,54.1z"/>
		<path id="XMLID_131_" d="M56.3,57.8L56,58.5c-0.6,0-1.2-0.3-1.6-0.7c-0.8-0.8-0.8-2-0.1-2.8c0.7-0.7,2-0.7,2.7,0
			c0.7,0.7,0.7,1.6,0.1,2.3l-2.6-1.4c-0.1,0.4,0,0.9,0.3,1.2C55.2,57.5,55.7,57.8,56.3,57.8z M54.9,55.5l2,1c0.1-0.4,0-0.7-0.2-1
			C56.1,55,55.4,55,54.9,55.5z"/>
		<path id="XMLID_134_" d="M57.9,61l0.3-1.5l-1.5,0.3l-0.7-0.7l2.3-0.4l0.4-2.1l0.7,0.7L59,58.8l1.4-0.3l0.7,0.7L59,59.5l-0.4,2.3
			L57.9,61z"/>
		<path id="XMLID_136_" d="M61.8,60.9l-1.2,1.2c-0.2,0.2-0.2,0.5,0,0.7c0.1,0.1,0.3,0.2,0.4,0.3l-0.5,0.5c-0.2-0.1-0.3-0.2-0.5-0.4
			c-0.5-0.5-0.5-1.1,0.1-1.7l1.3-1.3L61,59.9l0.6-0.4l0.3,0.3l0.5-0.5l0.9,0.2l-0.9,0.9l0.7,0.7l-0.5,0.5L61.8,60.9z"/>
		<path id="XMLID_138_" d="M65.7,69.1l1.6-4.2l-4.2,1.6l2.8-5.6l0.6,0.6l-1.8,3.5l3.9-1.5l-1.5,3.9l3.5-1.8l0.6,0.6L65.7,69.1z"/>
		<path id="XMLID_140_" d="M68.7,71.9l0.2-0.2c-0.3-0.1-0.6-0.1-0.9-0.4c-0.6-0.6-0.6-1.4-0.1-1.9s1.4-0.5,1.9,0.1
			c0.2,0.2,0.4,0.5,0.4,0.8l0.1-0.1c0.3-0.3,0.4-0.6-0.1-1c-0.2-0.2-0.5-0.4-0.7-0.5l0.6-0.4c0.2,0.1,0.5,0.4,0.7,0.6
			c0.7,0.7,0.7,1.4,0.2,1.9l-1.3,1.3l-0.5,0.5L68.7,71.9z M69.6,71.1c0.3-0.3,0.2-0.7-0.1-1c-0.3-0.3-0.7-0.2-1,0
			c-0.3,0.3-0.2,0.7,0,1C68.8,71.3,69.3,71.3,69.6,71.1z"/>
		<path id="XMLID_143_" d="M74,71.9l-0.6,0.6c-0.6-0.6-1-0.6-1.6,0l-1.3,1.3L70,73.2l2.5-2.5l0.6,0.5l-0.4,0.4
			C73.1,71.4,73.6,71.5,74,71.9z"/>
		<path id="XMLID_145_" d="M75.8,75.8l-1.5,1.5l-0.6-0.6l1.5-1.5c0.4-0.4,0.4-0.9,0.1-1.2c-0.4-0.4-0.9-0.4-1.3,0.1l-1.5,1.5
			L71.9,75l4.1-4.1l0.6,0.5l-1.8,1.8c0.4-0.1,0.8,0.1,1.2,0.4C76.5,74.4,76.4,75.2,75.8,75.8z"/>
		<path id="XMLID_147_" d="M76.4,79.6l0.2-0.2c-0.3-0.1-0.6-0.1-0.9-0.4c-0.6-0.6-0.6-1.4-0.1-1.9s1.4-0.5,1.9,0.1
			c0.2,0.2,0.4,0.5,0.4,0.8l0.1-0.1c0.3-0.3,0.4-0.6-0.1-1c-0.2-0.2-0.5-0.4-0.7-0.5l0.6-0.4c0.2,0.1,0.5,0.4,0.7,0.6
			c0.7,0.7,0.7,1.4,0.2,1.9l-1.3,1.3l-0.5,0.5L76.4,79.6z M77.2,78.7c0.3-0.3,0.2-0.7-0.1-1c-0.3-0.3-0.7-0.2-1,0
			c-0.3,0.3-0.2,0.7,0,1C76.5,79,77,78.9,77.2,78.7z"/>
		<path id="XMLID_150_" d="M83,83l-1.6,1.6l-0.6-0.6l1.5-1.5c0.4-0.4,0.4-0.7,0.1-1c-0.3-0.3-0.8-0.3-1.2,0.1L79.8,83l-0.6-0.6
			l1.5-1.5c0.4-0.4,0.4-0.7,0.1-1c-0.3-0.3-0.8-0.3-1.2,0.1l-1.5,1.5l-0.6-0.6l2.5-2.5l0.6,0.5l-0.3,0.3c0.4-0.1,0.8,0.1,1.1,0.4
			c0.3,0.3,0.5,0.7,0.3,1.2c0.4-0.1,0.9,0.1,1.3,0.4C83.7,81.6,83.7,82.3,83,83z"/>
		<path id="XMLID_152_" d="M87.6,87.6L86,89.2l-0.6-0.6l1.5-1.5c0.4-0.4,0.4-0.7,0.1-1c-0.3-0.3-0.8-0.3-1.2,0.1l-1.5,1.5l-0.6-0.6
			l1.5-1.5c0.4-0.4,0.4-0.7,0.1-1C85,84,84.5,84,84.1,84.4l-1.5,1.5l-0.6-0.6l2.5-2.5l0.6,0.5l-0.3,0.3c0.4-0.1,0.8,0.1,1.1,0.4
			c0.3,0.3,0.5,0.7,0.3,1.2c0.4-0.1,0.9,0.1,1.3,0.4C88.3,86.2,88.3,86.9,87.6,87.6z"/>
		<path id="XMLID_154_" d="M89.7,91.2l-0.3,0.7c-0.6,0-1.2-0.3-1.6-0.7c-0.8-0.8-0.8-2-0.1-2.8s2-0.7,2.7,0c0.7,0.7,0.7,1.6,0.1,2.3
			L88,89.4c-0.1,0.4,0,0.9,0.3,1.2C88.7,91,89.1,91.2,89.7,91.2z M88.3,88.9l2,1c0.1-0.4,0-0.7-0.2-1C89.5,88.4,88.8,88.4,88.3,88.9
			z"/>
		<path id="XMLID_157_" d="M93.8,91.7l-0.6,0.6c-0.6-0.6-1-0.6-1.6,0l-1.3,1.3L89.8,93l2.5-2.5l0.6,0.5l-0.4,0.4
			C92.9,91.1,93.3,91.3,93.8,91.7z"/>
		<path id="XMLID_159_" d="M96.8,97.4c-0.7,0.7-2,0.7-2.6,0.1c-0.4-0.4-0.6-0.8-0.5-1.2l-1.6,1.6l-0.6-0.6l3.8-3.8l0.6,0.5l-0.4,0.4
			c0.4-0.1,1,0.1,1.4,0.5C97.5,95.4,97.5,96.7,96.8,97.4z M96.2,96.8c0.5-0.5,0.5-1.2,0.1-1.7c-0.4-0.4-1.2-0.4-1.7,0.1
			s-0.5,1.2-0.1,1.7C95,97.3,95.7,97.3,96.2,96.8z"/>
		<path id="XMLID_162_" d="M101,98.9l-2.6,2.6l-0.6-0.6l0.3-0.3c-0.4,0.1-0.9-0.1-1.2-0.4c-0.6-0.6-0.6-1.4,0.1-2l1.5-1.5l0.6,0.5
			l-1.5,1.5c-0.4,0.4-0.4,0.9-0.1,1.2c0.4,0.4,0.9,0.4,1.3-0.1l1.4-1.4L101,98.9z"/>
		<path id="XMLID_164_" d="M103.2,101.1l-0.6,0.6c-0.6-0.6-1-0.6-1.6,0l-1.3,1.3l-0.6-0.6l2.5-2.5l0.6,0.5l-0.4,0.4
			C102.3,100.6,102.7,100.6,103.2,101.1z"/>
		<path id="XMLID_166_" d="M102.1,102.7c0.7-0.7,2-0.7,2.7,0c0.2,0.2,0.4,0.5,0.6,0.8l-0.6,0.4c-0.1-0.3-0.2-0.6-0.4-0.7
			c-0.5-0.5-1.2-0.4-1.7,0.1s-0.5,1.2,0,1.7c0.2,0.2,0.5,0.4,0.8,0.4l-0.4,0.6c-0.4-0.1-0.6-0.2-0.9-0.5
			C101.3,104.6,101.3,103.4,102.1,102.7z"/>
		<path id="XMLID_168_" d="M107.3,107.3l-1.5,1.5l-0.6-0.6l1.5-1.5c0.4-0.4,0.4-0.9,0.1-1.2c-0.4-0.4-0.9-0.4-1.3,0.1l-1.5,1.5
			l-0.6-0.6l4.1-4.1l0.6,0.5l-1.8,1.8c0.4-0.1,0.8,0.1,1.2,0.4C108,105.9,108,106.7,107.3,107.3z"/>
		<path id="XMLID_170_" d="M108,111.2l0.2-0.2c-0.3-0.1-0.6-0.1-0.9-0.4c-0.6-0.6-0.6-1.4-0.1-1.9c0.5-0.5,1.4-0.5,1.9,0.1
			c0.2,0.2,0.4,0.5,0.4,0.8l0.1-0.1c0.3-0.3,0.4-0.6-0.1-1c-0.2-0.2-0.5-0.4-0.7-0.5l0.6-0.4c0.2,0.1,0.5,0.4,0.7,0.6
			c0.7,0.7,0.7,1.4,0.2,1.9l-1.3,1.3l-0.5,0.5L108,111.2z M108.8,110.3c0.3-0.3,0.2-0.7-0.1-1c-0.3-0.3-0.7-0.2-1,0
			c-0.3,0.3-0.2,0.7,0,1C108.1,110.5,108.6,110.5,108.8,110.3z"/>
		<path id="XMLID_173_" d="M109.2,112l0.6-0.4c0.1,0.4,0.2,0.7,0.5,1s0.5,0.2,0.7,0.1c0.1-0.1,0.2-0.3,0-0.7l-0.1-0.2
			c-0.2-0.5-0.2-1,0.1-1.4c0.4-0.4,1-0.4,1.6,0.1c0.2,0.2,0.4,0.6,0.6,0.9l-0.6,0.4c-0.1-0.4-0.3-0.7-0.4-0.8
			c-0.2-0.2-0.4-0.2-0.6-0.1c-0.1,0.1-0.2,0.3,0.1,0.7l0.1,0.2c0.3,0.6,0.2,1.1-0.1,1.5c-0.5,0.5-1.2,0.4-1.7-0.1
			C109.5,112.8,109.3,112.4,109.2,112z"/>
		<path id="XMLID_175_" d="M114.4,115.9l-0.3,0.7c-0.6,0-1.2-0.3-1.6-0.7c-0.8-0.8-0.8-2-0.1-2.8s2-0.7,2.7,0
			c0.7,0.7,0.7,1.6,0.1,2.3l-2.6-1.4c-0.1,0.4,0,0.9,0.3,1.2C113.3,115.6,113.8,115.9,114.4,115.9z M113,113.6l2,1
			c0.1-0.4,0-0.7-0.2-1C114.2,113.1,113.5,113.1,113,113.6z"/>
		<path id="XMLID_178_" d="M119.6,117.5l-0.6,0.6c-0.6-0.6-1-0.6-1.6,0l-1.3,1.3l-0.6-0.6l2.5-2.5l0.6,0.5l-0.4,0.4
			C118.7,117,119.2,117.1,119.6,117.5z"/>
		<path id="XMLID_180_" d="M120.4,121.9l-0.3,0.7c-0.6,0-1.2-0.3-1.6-0.7c-0.8-0.8-0.8-2-0.1-2.8s2-0.7,2.7,0
			c0.7,0.7,0.7,1.6,0.1,2.3l-2.6-1.4c-0.1,0.4,0,0.9,0.3,1.2C119.4,121.7,119.8,121.9,120.4,121.9z M119,119.6l2,1
			c0.1-0.4,0-0.7-0.2-1C120.2,119.1,119.6,119.2,119,119.6z"/>
		<path id="XMLID_183_" d="M127.1,122l-4.2,4.2l-0.6-0.6l0.4-0.4c-0.4,0.1-0.9-0.1-1.3-0.4c-0.7-0.7-0.7-1.9,0.1-2.6s2-0.7,2.6-0.1
			c0.4,0.4,0.5,0.7,0.5,1.2l1.8-1.8L127.1,122z M123.7,124.4c0.5-0.5,0.5-1.2,0.1-1.7c-0.4-0.4-1.2-0.4-1.7,0.1s-0.5,1.2-0.1,1.7
			C122.5,124.8,123.3,124.8,123.7,124.4z"/>
		<path id="XMLID_186_" d="M126.8,128.2l-0.3,0.7c-0.6,0-1.2-0.3-1.6-0.7c-0.8-0.8-0.8-2-0.1-2.8s2-0.7,2.7,0
			c0.7,0.7,0.7,1.6,0.1,2.3l-2.6-1.4c-0.1,0.4,0,0.9,0.3,1.2C125.7,128,126.1,128.2,126.8,128.2z M125.3,126l2,1
			c0.1-0.4,0-0.7-0.2-1C126.6,125.5,125.9,125.5,125.3,126z"/>
		<path id="XMLID_189_" d="M129.8,131.2l-0.3,0.7c-0.6,0-1.2-0.3-1.6-0.7c-0.8-0.8-0.8-2-0.1-2.8c0.7-0.7,2-0.7,2.7,0
			c0.7,0.7,0.7,1.6,0.1,2.3l-2.6-1.4c-0.1,0.4,0,0.9,0.3,1.2C128.7,131,129.2,131.2,129.8,131.2z M128.4,129l2,1
			c0.1-0.4,0-0.7-0.2-1C129.6,128.5,128.9,128.5,128.4,129z"/>
		<path id="XMLID_192_" d="M135.2,135.2l-1.6,1.6l-0.6-0.6l1.5-1.5c0.4-0.4,0.4-0.7,0.1-1s-0.8-0.3-1.2,0.1l-1.5,1.5l-0.6-0.6
			l1.5-1.5c0.4-0.4,0.4-0.7,0.1-1c-0.3-0.3-0.8-0.3-1.2,0.1l-1.5,1.5l-0.6-0.6l2.5-2.5l0.6,0.5l-0.3,0.3c0.4-0.1,0.8,0.1,1.1,0.4
			c0.3,0.3,0.5,0.7,0.3,1.2c0.4-0.1,0.9,0.1,1.3,0.4C135.8,133.7,135.8,134.5,135.2,135.2z"/>
		<path id="XMLID_194_" d="M135.7,138.9l0.2-0.2c-0.3-0.1-0.6-0.1-0.9-0.4c-0.6-0.6-0.6-1.4-0.1-1.9c0.5-0.5,1.4-0.5,1.9,0.1
			c0.2,0.2,0.4,0.5,0.4,0.8l0.1-0.1c0.3-0.3,0.4-0.6-0.1-1c-0.2-0.2-0.5-0.4-0.7-0.5l0.6-0.4c0.2,0.1,0.5,0.4,0.7,0.6
			c0.7,0.7,0.7,1.4,0.2,1.9l-1.3,1.3l-0.5,0.5L135.7,138.9z M136.6,138c0.3-0.3,0.2-0.7-0.1-1s-0.7-0.2-1,0c-0.3,0.3-0.2,0.7,0,1
			C135.8,138.3,136.3,138.3,136.6,138z"/>
		<path id="XMLID_197_" d="M140.9,141.5c-0.8,0.8-2,0.7-2.8-0.1c-0.8-0.8-0.8-1.9,0-2.7l2.8-2.8l0.7,0.6l-1.8,1.8
			c0.4-0.1,0.9,0.1,1.2,0.5C141.7,139.6,141.7,140.8,140.9,141.5z M140.4,141c0.5-0.5,0.5-1.2,0.1-1.7c-0.5-0.5-1.2-0.5-1.7,0
			c-0.5,0.5-0.4,1.2,0,1.6C139.2,141.4,139.9,141.5,140.4,141z"/>
		<path id="XMLID_200_" d="M144.3,139.4l0.6,0.5l-4.2,4.2l-0.6-0.6L144.3,139.4z"/>
		<path id="XMLID_202_" d="M144.6,146.1l-0.3,0.7c-0.6,0-1.2-0.3-1.6-0.7c-0.8-0.8-0.8-2-0.1-2.8c0.7-0.7,2-0.7,2.7,0
			c0.7,0.7,0.7,1.6,0.1,2.3l-2.6-1.4c-0.1,0.4,0,0.9,0.3,1.2C143.6,145.9,144,146.1,144.6,146.1z M143.3,143.9l2,1
			c0.1-0.4,0-0.7-0.2-1C144.5,143.4,143.8,143.4,143.3,143.9z"/>
	</g>
	<g id="XMLID_2_" class="st0">
		<path id="XMLID_4_" d="M16.9,33.8l0.2-0.2c-0.3-0.1-0.7-0.2-0.9-0.4c-0.6-0.6-0.6-1.4-0.1-1.9c0.5-0.5,1.4-0.5,1.9,0.1
			c0.2,0.2,0.4,0.5,0.4,0.8l0.1-0.1c0.3-0.3,0.4-0.6-0.1-1c-0.2-0.2-0.5-0.4-0.7-0.5l0.6-0.4c0.2,0.1,0.5,0.4,0.7,0.6
			c0.7,0.7,0.7,1.4,0.2,1.9l-1.3,1.3l-0.5,0.5L16.9,33.8z M17.8,33c0.3-0.3,0.2-0.7-0.1-1c-0.3-0.3-0.7-0.3-1,0s-0.2,0.7,0,1
			C17,33.2,17.5,33.2,17.8,33z"/>
		<path id="XMLID_7_" d="M20.9,33.7l-1.2,1.2c-0.2,0.2-0.2,0.5,0,0.7c0.1,0.1,0.3,0.2,0.4,0.3l-0.5,0.5c-0.2-0.1-0.3-0.2-0.5-0.4
			c-0.5-0.5-0.5-1.1,0.1-1.7l1.3-1.3l-0.4-0.4l0.6-0.4l0.3,0.3l0.5-0.5l0.9,0.2l-0.9,0.9l0.7,0.7l-0.5,0.5L20.9,33.7z"/>
		<path id="XMLID_9_" d="M25.3,34.3l0.7,0.6l-4.1,4.1l-0.6-0.6L25.3,34.3z"/>
		<path id="XMLID_11_" d="M26.8,40.5l-1.5,1.5l-0.6-0.6l1.5-1.5c0.4-0.4,0.4-0.9,0.1-1.2c-0.4-0.4-0.9-0.4-1.3,0.1l-1.5,1.5
			l-0.6-0.6l2.5-2.5l0.6,0.5l-0.3,0.3c0.4-0.1,0.9,0.1,1.2,0.4C27.4,39.1,27.4,39.9,26.8,40.5z"/>
		<path id="XMLID_13_" d="M28.7,41.5l-1.2,1.2c-0.2,0.2-0.2,0.5,0,0.7c0.1,0.1,0.3,0.2,0.4,0.3l-0.5,0.5c-0.2-0.1-0.3-0.2-0.5-0.4
			c-0.5-0.5-0.5-1.1,0.1-1.7l1.3-1.3l-0.4-0.4l0.6-0.4l0.3,0.3l0.5-0.5l0.9,0.2L29.2,41l0.7,0.7l-0.5,0.5L28.7,41.5z"/>
		<path id="XMLID_15_" d="M30.8,46.1l-0.3,0.7c-0.6,0-1.2-0.3-1.6-0.7c-0.8-0.8-0.8-2-0.1-2.8c0.7-0.7,2-0.7,2.7,0
			c0.7,0.7,0.7,1.6,0.1,2.3l-2.6-1.4c-0.1,0.4,0,0.9,0.3,1.2C29.8,45.9,30.2,46.1,30.8,46.1z M29.4,43.8l2,1c0.1-0.4,0-0.7-0.2-1
			C30.7,43.4,30,43.4,29.4,43.8z"/>
		<path id="XMLID_18_" d="M34.9,46.5l-0.6,0.6c-0.6-0.6-1-0.6-1.6,0l-1.3,1.3l-0.6-0.6l2.5-2.5l0.6,0.5l-0.4,0.4
			C34,46.1,34.5,46.1,34.9,46.5z"/>
		<path id="XMLID_20_" d="M35.6,48.3l-1.2,1.2c-0.2,0.2-0.2,0.5,0,0.7c0.1,0.1,0.3,0.2,0.4,0.3l-0.5,0.5c-0.2-0.1-0.3-0.2-0.5-0.4
			c-0.5-0.5-0.5-1.1,0.1-1.7l1.3-1.3l-0.4-0.4l0.6-0.4l0.3,0.3l0.5-0.5L37,47l-0.9,0.9l0.7,0.7l-0.5,0.5L35.6,48.3z"/>
		<path id="XMLID_22_" d="M35.8,50.2c0.7-0.7,2-0.7,2.8,0.1s0.7,2,0,2.7s-2,0.7-2.7,0C35.1,52.1,35.1,50.9,35.8,50.2z M38,52.4
			c0.5-0.5,0.5-1.2,0.1-1.7c-0.5-0.5-1.2-0.4-1.7,0.1s-0.5,1.2-0.1,1.7C36.8,52.9,37.5,52.9,38,52.4z"/>
		<path id="XMLID_25_" d="M42.7,54.5L37,56.6l-0.6-0.6l2.3-0.7l1.2-3.3l0.6,0.6l-1,2.5l2.5-1L42.7,54.5L42.7,54.5z"/>
		<path id="XMLID_27_" d="M40.5,57.1l0.6-0.4c0.1,0.4,0.2,0.7,0.5,1c0.2,0.2,0.5,0.2,0.7,0.1c0.1-0.1,0.2-0.3,0-0.7l-0.1-0.1
			c-0.2-0.5-0.2-1,0.1-1.4c0.4-0.4,1-0.4,1.6,0.1c0.2,0.2,0.4,0.6,0.6,0.9L43.9,57c-0.1-0.4-0.3-0.7-0.4-0.8
			C43.2,56,43,56,42.9,56.1c-0.1,0.1-0.2,0.3,0.1,0.7L43,57c0.3,0.6,0.2,1.1-0.1,1.5c-0.5,0.5-1.2,0.4-1.7-0.1
			C40.8,57.9,40.7,57.5,40.5,57.1z"/>
		<path id="XMLID_29_" d="M46,62.9l0.6-3.4l-2,2L44,60.9l4-4l0.7,0.6l-1.9,1.9l3.2-0.5l0.7,0.7l-3.4,0.5l-0.6,3.6L46,62.9L46,62.9z"
			/>
		<path id="XMLID_31_" d="M48.2,62.5c0.7-0.7,2-0.7,2.8,0.1s0.7,2,0,2.7c-0.7,0.7-2,0.7-2.7,0C47.4,64.5,47.4,63.3,48.2,62.5z
			 M50.4,64.7c0.5-0.5,0.5-1.2,0.1-1.7c-0.5-0.5-1.2-0.4-1.7,0.1c-0.5,0.5-0.5,1.2-0.1,1.7S49.9,65.2,50.4,64.7z"/>
		<path id="XMLID_34_" d="M55.2,66.8l-2.6,2.6L52,68.9l0.3-0.3c-0.4,0.1-0.9-0.1-1.2-0.4c-0.6-0.6-0.6-1.4,0.1-2l1.5-1.5l0.6,0.5
			l-1.5,1.5c-0.4,0.4-0.4,0.9-0.1,1.2c0.4,0.4,0.9,0.4,1.3-0.1l1.4-1.4L55.2,66.8z"/>
		<path id="XMLID_36_" d="M58.2,70l-4.1,1.4l1.4-4.1l0.6,0.6l-0.8,2.3l2.3-0.8L58.2,70z"/>
		<path id="XMLID_38_" d="M59,74.2l-0.3,0.7c-0.6,0-1.2-0.3-1.6-0.7c-0.7-0.7-0.7-2,0-2.7c0.7-0.7,2-0.7,2.7,0
			c0.7,0.7,0.7,1.6,0.1,2.3l-2.6-1.4c-0.1,0.4,0,0.9,0.3,1.2C57.9,74,58.3,74.2,59,74.2z M57.6,72l2,1c0.1-0.4,0-0.7-0.2-1
			C58.8,71.5,58.1,71.5,57.6,72z"/>
		<path id="XMLID_41_" d="M62.9,76.6l-1.5,1.5l-0.6-0.6l1.5-1.5c0.4-0.4,0.4-0.9,0.1-1.2C62,74.6,61.5,74.6,61,75l-1.5,1.5L59,76
			l2.5-2.5l0.6,0.5l-0.3,0.3c0.4-0.1,0.9,0.1,1.2,0.4C63.6,75.2,63.5,76,62.9,76.6z"/>
		<path id="XMLID_43_" d="M68.8,77.4l-4.2,4.2L64.1,81l0.4-0.4c-0.4,0.1-0.9-0.1-1.3-0.4c-0.7-0.7-0.7-1.9,0.1-2.6s2-0.7,2.6-0.1
			c0.4,0.4,0.5,0.7,0.5,1.2l1.8-1.8L68.8,77.4z M65.3,79.7c0.5-0.5,0.5-1.2,0.1-1.7c-0.4-0.4-1.2-0.4-1.7,0.1s-0.5,1.2-0.1,1.7
			C64.1,80.2,64.9,80.2,65.3,79.7z"/>
		<path id="XMLID_46_" d="M68.4,83.6l-0.3,0.7c-0.6,0-1.2-0.3-1.6-0.7c-0.8-0.8-0.8-2-0.1-2.8c0.7-0.7,2-0.7,2.7,0
			c0.7,0.7,0.7,1.6,0.1,2.3l-2.6-1.4c-0.1,0.4,0,0.9,0.3,1.2C67.3,83.4,67.8,83.6,68.4,83.6z M67,81.4l2,1c0.1-0.4,0-0.7-0.2-1
			C68.2,80.9,67.5,80.9,67,81.4z"/>
		<path id="XMLID_49_" d="M72.4,84.1l-0.6,0.6c-0.6-0.6-1-0.6-1.6,0L69,85.9l-0.6-0.6l2.5-2.5l0.6,0.5l-0.4,0.4
			C71.5,83.6,72,83.7,72.4,84.1z"/>
		<path id="XMLID_51_" d="M70.3,86.9l0.6-0.4c0.1,0.4,0.2,0.7,0.5,1c0.2,0.2,0.5,0.2,0.7,0.1c0.1-0.1,0.2-0.3,0-0.7L72,86.6
			c-0.2-0.5-0.2-1,0.1-1.4c0.4-0.4,1-0.4,1.6,0.1c0.2,0.2,0.4,0.6,0.6,0.9l-0.6,0.4c-0.1-0.4-0.3-0.7-0.4-0.8
			c-0.2-0.2-0.4-0.2-0.6-0.1c-0.1,0.1-0.2,0.3,0.1,0.7l0.1,0.2c0.3,0.6,0.2,1.1-0.1,1.5c-0.5,0.5-1.2,0.4-1.7-0.1
			C70.6,87.7,70.4,87.3,70.3,86.9z"/>
		<path id="XMLID_53_" d="M75.2,88L74,89.2c-0.2,0.2-0.2,0.5,0,0.7c0.1,0.1,0.3,0.2,0.4,0.3l-0.5,0.5c-0.2-0.1-0.3-0.2-0.5-0.4
			c-0.5-0.5-0.5-1.1,0.1-1.7l1.3-1.3l-0.4-0.4l0.6-0.4l0.3,0.3l0.5-0.5l0.9,0.2l-0.9,0.9l0.7,0.7L76,88.7L75.2,88z"/>
		<path id="XMLID_55_" d="M78.5,90.1l-0.6,0.6c-0.6-0.6-1-0.6-1.6,0L75,92l-0.6-0.6l2.5-2.5l0.6,0.5l-0.4,0.4
			C77.6,89.6,78.1,89.7,78.5,90.1z"/>
		<path id="XMLID_57_" d="M77.6,94.6l0.2-0.2c-0.3-0.1-0.6-0.1-0.9-0.4c-0.6-0.6-0.6-1.4-0.1-1.9s1.4-0.5,1.9,0.1
			c0.2,0.2,0.4,0.5,0.4,0.8l0.1-0.1c0.3-0.3,0.4-0.6-0.1-1c-0.2-0.2-0.5-0.4-0.7-0.5l0.6-0.4c0.2,0.1,0.5,0.4,0.7,0.6
			c0.7,0.7,0.7,1.4,0.2,1.9l-1.3,1.3l-0.5,0.5L77.6,94.6z M78.5,93.7c0.3-0.3,0.2-0.7-0.1-1c-0.3-0.3-0.7-0.2-1,0
			c-0.3,0.3-0.2,0.7,0,1C77.8,94,78.2,94,78.5,93.7z"/>
		<path id="XMLID_60_" d="M80.3,97.3l0.2-0.2c-0.3-0.1-0.6-0.1-0.9-0.4c-0.6-0.6-0.6-1.4-0.1-1.9s1.4-0.5,1.9,0.1
			c0.2,0.2,0.4,0.5,0.4,0.8l0.1-0.1c0.3-0.3,0.4-0.6-0.1-1c-0.2-0.2-0.5-0.4-0.7-0.5l0.6-0.4c0.2,0.1,0.5,0.4,0.7,0.6
			c0.7,0.7,0.7,1.4,0.2,1.9l-1.3,1.3l-0.5,0.5L80.3,97.3z M81.1,96.4c0.3-0.3,0.2-0.7-0.1-1c-0.3-0.3-0.7-0.2-1,0
			c-0.3,0.3-0.2,0.7,0,1C80.5,96.7,80.9,96.6,81.1,96.4z"/>
		<path id="XMLID_63_" d="M84.3,97.1l-1.2,1.2c-0.2,0.2-0.2,0.5,0,0.7c0.1,0.1,0.3,0.2,0.4,0.3L83,99.9c-0.2-0.1-0.3-0.2-0.5-0.4
			C82,99,82,98.4,82.6,97.8l1.3-1.3l-0.4-0.4l0.6-0.4l0.3,0.3l0.5-0.5l0.9,0.2l-0.9,0.9l0.7,0.7l-0.5,0.5L84.3,97.1z"/>
		<path id="XMLID_65_" d="M91.1,100.1l-5.6,2.4l-0.7-0.7l4.8-2.1l-1.8-1.8l0.7-0.5L91.1,100.1L91.1,100.1z"/>
		<path id="XMLID_67_" d="M91.2,105.6c-0.7,0.7-2,0.7-2.8-0.1c-0.5-0.5-0.7-1-0.6-1.7l0.7-0.2c-0.1,0.4,0,1,0.4,1.4
			c0.5,0.5,1.2,0.4,1.6,0s0.5-1.1-0.1-1.7c-0.1-0.1-0.3-0.3-0.6-0.4l2.4-0.6l-1.4-1.4l0.6-0.5l2.3,2.3l-2.6,0.5
			C91.9,104,91.8,104.9,91.2,105.6z"/>
		<path id="XMLID_69_" d="M91.5,106.7l0.6,0.6l-2.3,1l-0.6-0.5L91.5,106.7z"/>
		<path id="XMLID_71_" d="M100.5,109.4l-4.1,4.1l-0.6-0.6l1.8-1.8l-2.1-2.1l-1.7,1.7l-0.6-0.6l4-4l0.7,0.6l-1.7,1.7l2.1,2.1l1.7-1.7
			L100.5,109.4z"/>
		<path id="XMLID_73_" d="M98.4,112.7c0.7-0.7,2-0.7,2.8,0.1c0.8,0.8,0.7,2,0,2.7s-2,0.7-2.7,0C97.6,114.7,97.6,113.5,98.4,112.7z
			 M100.6,115c0.5-0.5,0.5-1.2,0.1-1.7c-0.5-0.5-1.2-0.4-1.7,0.1c-0.5,0.5-0.5,1.2-0.1,1.7C99.4,115.4,100.1,115.4,100.6,115z"/>
		<path id="XMLID_76_" d="M103.5,118.7l-0.3,0.7c-0.6,0-1.2-0.3-1.6-0.7c-0.8-0.8-0.8-2-0.1-2.8s2-0.7,2.7,0
			c0.7,0.7,0.7,1.6,0.1,2.3l-2.6-1.4c-0.1,0.4,0,0.9,0.3,1.2C102.4,118.5,102.9,118.7,103.5,118.7z M102.1,116.4l2,1
			c0.1-0.4,0-0.7-0.2-1C103.4,116,102.6,116,102.1,116.4z"/>
		<path id="XMLID_79_" d="M107.4,121.2l-1.5,1.5l-0.6-0.6l1.5-1.5c0.4-0.4,0.4-0.9,0.1-1.2c-0.4-0.4-0.9-0.4-1.3,0.1l-1.5,1.5
			l-0.6-0.6l2.5-2.5l0.6,0.5l-0.3,0.3c0.4-0.1,0.9,0.1,1.2,0.4C108.1,119.7,108,120.5,107.4,121.2z"/>
		<path id="XMLID_81_" d="M106.6,123.1l0.6-0.4c0.1,0.4,0.2,0.7,0.5,1c0.2,0.2,0.5,0.2,0.7,0.1c0.1-0.1,0.2-0.3,0-0.7l-0.1-0.2
			c-0.2-0.5-0.2-1,0.1-1.4c0.4-0.4,1-0.4,1.6,0.1c0.2,0.2,0.4,0.6,0.6,0.9l-0.6,0.4c-0.1-0.4-0.3-0.7-0.4-0.8
			c-0.2-0.2-0.4-0.2-0.6-0.1c-0.1,0.1-0.2,0.3,0.1,0.7l0.1,0.2c0.3,0.6,0.2,1.1-0.1,1.5c-0.5,0.5-1.2,0.4-1.7-0.1
			C106.9,123.9,106.7,123.6,106.6,123.1z"/>
		<path id="XMLID_83_" d="M112.7,127.1c-0.8,0.8-2,0.7-2.8-0.1c-0.8-0.8-0.8-1.9,0-2.7l2.8-2.8l0.7,0.6l-1.9,1.9
			c0.4-0.1,0.9,0.1,1.2,0.5C113.5,125.2,113.5,126.3,112.7,127.1z M112.1,126.5c0.5-0.5,0.5-1.2,0.1-1.7c-0.5-0.5-1.2-0.5-1.7,0
			s-0.4,1.2,0,1.6C110.9,126.9,111.6,127,112.1,126.5z"/>
		<path id="XMLID_86_" d="M116.1,127.7l-0.6,0.6c-0.6-0.6-1-0.6-1.6,0l-1.3,1.3l-0.6-0.6l2.5-2.5l0.6,0.5l-0.4,0.4
			C115.2,127.2,115.6,127.3,116.1,127.7z"/>
		<path id="XMLID_88_" d="M115,129.3c0.7-0.7,2-0.7,2.8,0.1c0.8,0.8,0.7,2,0,2.7c-0.7,0.7-2,0.7-2.7,0
			C114.2,131.3,114.2,130.1,115,129.3z M117.2,131.5c0.5-0.5,0.5-1.2,0.1-1.7c-0.5-0.5-1.2-0.4-1.7,0.1c-0.5,0.5-0.5,1.2-0.1,1.7
			C115.9,132,116.7,132,117.2,131.5z"/>
		<path id="XMLID_91_" d="M120.1,135.3l-0.3,0.7c-0.6,0-1.2-0.3-1.6-0.7c-0.8-0.8-0.8-2-0.1-2.8c0.7-0.7,2-0.7,2.7,0
			c0.7,0.7,0.7,1.6,0.1,2.3l-2.6-1.4c-0.1,0.4,0,0.9,0.3,1.2C119,135.1,119.4,135.3,120.1,135.3z M118.6,133l2,1
			c0.1-0.4,0-0.7-0.2-1C119.9,132.5,119.1,132.5,118.6,133z"/>
		<path id="XMLID_94_" d="M121.6,138.5l0.2-2.2l-1.2,1.2l-0.6-0.6l4.1-4.1l0.6,0.5l-2.8,2.8l2.1-0.2l0.7,0.7l-2.3,0.2l-0.2,2.5
			L121.6,138.5L121.6,138.5z"/>
		<path id="XMLID_96_" d="M123.1,139.3c0.2-0.2,0.6-0.2,0.9,0s0.2,0.6,0,0.9c-0.2,0.2-0.6,0.2-0.9,0
			C122.9,140,122.9,139.6,123.1,139.3z"/>
	</g>
</g>
</svg>
