<?xml version="1.0" encoding="utf-8"?>
<!-- Generator: Adobe Illustrator 19.0.0, SVG Export Plug-In . SVG Version: 6.00 Build 0)  -->
<svg version="1.1" id="Layer_1" xmlns="http://www.w3.org/2000/svg" xmlns:xlink="http://www.w3.org/1999/xlink" x="0px" y="0px"
	 viewBox="42 0 240.9 155.9" style="enable-background:new 42 0 240.9 155.9;" xml:space="preserve">
<style type="text/css">
	.st0{enable-background:new    ;}
</style>
<g id="XMLID_1_">
	<g id="XMLID_3_" class="st0">
		<path id="XMLID_98_" d="M58,71v3.2c-0.6,0.3-1.4,0.6-2.2,0.6c-1.9,0-3.4-1.5-3.4-3.4s1.5-3.4,3.5-3.4c0.7,0,1.3,0.2,1.8,0.5
			l-0.2,1C57,69.2,56.4,69,55.8,69c-1.4,0-2.5,1.1-2.5,2.4c0,1.4,1.1,2.4,2.4,2.4c0.5,0,0.9-0.1,1.2-0.2v-1.7h-1.7l0.2-0.9H58z"/>
		<path id="XMLID_100_" d="M62.8,73.3l0.3,0.8c-0.5,0.5-1.2,0.7-1.9,0.7c-1.3,0-2.3-1-2.3-2.2s1-2.2,2.2-2.2c1.1,0,1.9,0.7,2,1.8
			l-3.2,1c0.2,0.4,0.7,0.7,1.2,0.7C61.8,74,62.3,73.8,62.8,73.3z M59.8,72.6l2.4-0.8c-0.2-0.4-0.6-0.6-1-0.6
			C60.4,71.2,59.9,71.8,59.8,72.6z"/>
		<path id="XMLID_103_" d="M65.3,71.3v2c0,0.4,0.2,0.6,0.6,0.6c0.2,0,0.4-0.1,0.6-0.1v0.8c-0.2,0.1-0.4,0.1-0.7,0.1
			c-0.8,0-1.3-0.5-1.3-1.4v-2.1h-0.6l0.1-0.8h0.5v-0.8l0.9-0.5v1.4h1.1v0.8H65.3z"/>
		<path id="XMLID_105_" d="M71.3,68v6.7h-1v-5.1L69,70.3l-0.2-1L71.3,68z"/>
		<path id="XMLID_107_" d="M76.7,72.6c0,1.2-0.9,2.2-2.3,2.2c-0.7,0-1.3-0.3-1.8-0.6l0.2-0.9c0.4,0.3,0.9,0.6,1.5,0.6
			c0.8,0,1.3-0.6,1.3-1.3c0-0.7-0.5-1.3-1.4-1.3c-0.5,0-1,0.2-1.5,0.5l0.2-3.7h3.4L76.1,69h-2.4l-0.1,1.6c0.2-0.1,0.5-0.1,0.7-0.1
			C75.7,70.5,76.7,71.4,76.7,72.6z"/>
		<path id="XMLID_109_" d="M77.8,69.9c0-1,0.5-1.8,1.4-1.8c0.9,0,1.4,0.7,1.4,1.8s-0.5,1.8-1.4,1.8C78.4,71.6,77.8,70.9,77.8,69.9z
			 M78.3,74.4l5.1-6.3l0.5,0.4l-5.1,6.3L78.3,74.4z M80,69.9c0-0.6-0.2-1.1-0.7-1.1s-0.7,0.5-0.7,1.1s0.2,1.1,0.7,1.1
			C79.7,71,80,70.5,80,69.9z M81.6,73c0-1,0.5-1.8,1.4-1.8s1.4,0.7,1.4,1.8c0,1-0.5,1.8-1.4,1.8C82.2,74.7,81.6,74,81.6,73z
			 M83.8,73c0-0.6-0.2-1.1-0.7-1.1s-0.7,0.5-0.7,1.1s0.2,1.1,0.7,1.1C83.5,74.1,83.8,73.6,83.8,73z"/>
		<path id="XMLID_115_" d="M87.3,72.6c0-1.2,1-2.2,2.3-2.2s2.2,1,2.2,2.2s-1,2.2-2.2,2.2C88.3,74.8,87.3,73.8,87.3,72.6z M90.9,72.6
			c0-0.8-0.6-1.4-1.3-1.4c-0.8,0-1.3,0.6-1.3,1.4s0.6,1.4,1.3,1.4C90.4,74,90.9,73.4,90.9,72.6z"/>
		<path id="XMLID_118_" d="M96.7,69.7v0.8h0.9v0.8h-0.9v3.4h-1v-3.4h-1.8v3.4h-1v-3.4h-0.6l0.1-0.8H93v-0.9c0-1.1,0.7-1.7,1.8-1.7
			h0.1v0.8h-0.1c-0.5,0-0.8,0.3-0.8,0.9v0.8h1.8v-0.9c0-1.1,0.7-1.7,1.8-1.7h0.1v0.8h-0.1C97,68.8,96.7,69.1,96.7,69.7z"/>
		<path id="XMLID_120_" d="M104.1,70.5l-2.9,6.3h-1l1.3-2.5l-1.7-3.7h1l1.2,2.8l1.2-2.8h0.9V70.5z"/>
		<path id="XMLID_122_" d="M104.3,72.6c0-1.2,1-2.2,2.3-2.2c1.3,0,2.2,1,2.2,2.2s-1,2.2-2.2,2.2C105.3,74.8,104.3,73.8,104.3,72.6z
			 M107.9,72.6c0-0.8-0.6-1.4-1.3-1.4c-0.8,0-1.3,0.6-1.3,1.4s0.6,1.4,1.3,1.4S107.9,73.4,107.9,72.6z"/>
		<path id="XMLID_125_" d="M113.5,70.4v4.3h-0.9v-0.5c-0.3,0.4-0.8,0.6-1.3,0.6c-1,0-1.6-0.7-1.6-1.7v-2.5l0.9-0.1V73
			c0,0.7,0.4,1,0.9,1c0.6,0,1-0.4,1-1.1v-2.3L113.5,70.4z"/>
		<path id="XMLID_127_" d="M117.1,70.4v0.9c-0.9,0-1.3,0.4-1.3,1.3v2.1h-0.9v-4.1l0.9-0.1v0.7C116,70.7,116.4,70.4,117.1,70.4z"/>
		<path id="XMLID_129_" d="M123.5,72.1v2.5h-0.9v-2.4c0-0.7-0.4-1-0.9-1c-0.6,0-1,0.4-1,1.1v2.4h-0.9v-4.1l0.9-0.1V71
			c0.3-0.4,0.8-0.6,1.3-0.6C122.9,70.4,123.5,71.1,123.5,72.1z"/>
		<path id="XMLID_131_" d="M128.3,73.3l0.3,0.8c-0.5,0.5-1.2,0.7-1.9,0.7c-1.3,0-2.3-1-2.3-2.2s1-2.2,2.2-2.2c1.1,0,1.9,0.7,2,1.8
			l-3.2,1c0.2,0.4,0.7,0.7,1.2,0.7C127.2,74,127.8,73.8,128.3,73.3z M125.3,72.6l2.4-0.8c-0.2-0.4-0.6-0.6-1-0.6
			C125.9,71.2,125.3,71.8,125.3,72.6z"/>
		<path id="XMLID_134_" d="M132.2,74.7l-1-1.5l-1,1.5h-1.1l1.6-2.2l-1.4-2h1.1l0.9,1.4l0.9-1.4h1.1l-1.4,2l1.5,2.2H132.2z"/>
		<path id="XMLID_136_" d="M135.3,71.3v2c0,0.4,0.2,0.6,0.6,0.6c0.2,0,0.4-0.1,0.6-0.1v0.8c-0.2,0.1-0.4,0.1-0.7,0.1
			c-0.8,0-1.3-0.5-1.3-1.4v-2.1h-0.6l0.1-0.8h0.5v-0.8l0.9-0.5v1.4h1.1v0.8H135.3z"/>
		<path id="XMLID_138_" d="M145.2,74.9l-2.1-4.7l-2.1,4.7l-2.3-6.8h1l1.4,4.3L143,68l1.9,4.4l1.4-4.3h1L145.2,74.9z"/>
		<path id="XMLID_140_" d="M149.9,74.7v-0.3c-0.3,0.2-0.6,0.4-1.1,0.4c-0.9,0-1.6-0.7-1.6-1.5s0.7-1.5,1.6-1.5c0.4,0,0.7,0.1,1,0.3
			v-0.2c0-0.5-0.2-0.8-0.9-0.8c-0.4,0-0.7,0.1-1,0.2l0.1-0.8c0.3-0.1,0.7-0.1,1-0.1c1.1,0,1.7,0.5,1.7,1.4v2.1v0.8H149.9z
			 M149.9,73.3c0-0.5-0.4-0.8-0.9-0.8s-0.8,0.4-0.8,0.8c0,0.5,0.4,0.8,0.8,0.8C149.5,74.1,149.9,73.7,149.9,73.3z"/>
		<path id="XMLID_143_" d="M154.2,70.4v0.9c-0.9,0-1.3,0.4-1.3,1.3v2.1H152v-4.1l0.9-0.1v0.7C153.1,70.7,153.5,70.4,154.2,70.4z"/>
		<path id="XMLID_145_" d="M158.8,72.1v2.5h-0.9v-2.4c0-0.7-0.4-1-0.9-1c-0.6,0-1,0.4-1,1.1v2.4h-1v-6.6l0.9-0.1v3
			c0.3-0.4,0.7-0.6,1.3-0.6C158.2,70.4,158.8,71.1,158.8,72.1z"/>
		<path id="XMLID_147_" d="M162.4,74.7v-0.3c-0.3,0.2-0.6,0.4-1.1,0.4c-0.9,0-1.6-0.7-1.6-1.5s0.7-1.5,1.6-1.5c0.4,0,0.7,0.1,1,0.3
			v-0.2c0-0.5-0.2-0.8-0.9-0.8c-0.4,0-0.7,0.1-1,0.2l0.1-0.8c0.3-0.1,0.7-0.1,1-0.1c1.1,0,1.7,0.5,1.7,1.4v2.1v0.8H162.4z
			 M162.3,73.3c0-0.5-0.4-0.8-0.9-0.8s-0.8,0.4-0.8,0.8c0,0.5,0.4,0.8,0.8,0.8C162,74.1,162.3,73.7,162.3,73.3z"/>
		<path id="XMLID_150_" d="M170.6,72.1v2.6h-0.9v-2.5c0-0.6-0.3-0.9-0.8-0.9s-0.9,0.4-0.9,1v2.4h-1v-2.5c0-0.6-0.3-0.9-0.8-0.9
			s-0.9,0.4-0.9,1v2.4h-0.9v-4.1l0.9-0.1V71c0.3-0.4,0.7-0.6,1.2-0.6s1,0.2,1.2,0.7c0.3-0.4,0.8-0.7,1.4-0.7
			C170,70.4,170.6,71,170.6,72.1z"/>
		<path id="XMLID_152_" d="M178,72.1v2.6h-1v-2.5c0-0.6-0.3-0.9-0.8-0.9s-0.9,0.4-0.9,1v2.4h-1v-2.5c0-0.6-0.3-0.9-0.8-0.9
			s-0.9,0.4-0.9,1v2.4h-0.9v-4.1l0.9-0.1V71c0.3-0.4,0.7-0.6,1.2-0.6s1,0.2,1.2,0.7c0.3-0.4,0.8-0.7,1.4-0.7
			C177.4,70.4,178,71,178,72.1z"/>
		<path id="XMLID_154_" d="M182.7,73.3l0.3,0.8c-0.5,0.5-1.2,0.7-1.9,0.7c-1.3,0-2.3-1-2.3-2.2s1-2.2,2.2-2.2c1.1,0,1.9,0.7,2,1.8
			l-3.2,1c0.2,0.4,0.7,0.7,1.2,0.7C181.7,74,182.2,73.8,182.7,73.3z M179.7,72.6l2.4-0.8c-0.2-0.4-0.6-0.6-1-0.6
			C180.3,71.2,179.7,71.8,179.7,72.6z"/>
		<path id="XMLID_157_" d="M186.4,70.4v0.9c-0.9,0-1.3,0.4-1.3,1.3v2.1h-0.9v-4.1l0.9-0.1v0.7C185.2,70.7,185.7,70.4,186.4,70.4z"/>
		<path id="XMLID_159_" d="M193.5,72.6c0,1.2-1,2.2-2.1,2.2c-0.6,0-1.1-0.2-1.4-0.6v2.6h-1v-6.2l0.9-0.1v0.7
			c0.3-0.4,0.9-0.7,1.5-0.7C192.5,70.4,193.5,71.4,193.5,72.6z M192.5,72.6c0-0.8-0.6-1.4-1.3-1.4s-1.3,0.6-1.3,1.4s0.6,1.4,1.3,1.4
			C192,74,192.5,73.4,192.5,72.6z"/>
		<path id="XMLID_162_" d="M198.1,70.4v4.3h-0.9v-0.5c-0.3,0.4-0.8,0.6-1.3,0.6c-1,0-1.6-0.7-1.6-1.7v-2.5l0.9-0.1V73
			c0,0.7,0.4,1,0.9,1c0.6,0,1-0.4,1-1.1v-2.3L198.1,70.4z"/>
		<path id="XMLID_164_" d="M201.7,70.4v0.9c-0.9,0-1.3,0.4-1.3,1.3v2.1h-0.9v-4.1l0.9-0.1v0.7C200.6,70.7,201,70.4,201.7,70.4z"/>
		<path id="XMLID_166_" d="M202.1,72.6c0-1.2,1-2.2,2.2-2.2c0.4,0,0.7,0.1,1.1,0.2l-0.1,0.8c-0.3-0.2-0.6-0.3-0.9-0.3
			c-0.8,0-1.3,0.6-1.3,1.4s0.6,1.4,1.4,1.4c0.3,0,0.7-0.1,1-0.3l0.1,0.8c-0.4,0.2-0.7,0.3-1.1,0.3C203.1,74.8,202.1,73.8,202.1,72.6
			z"/>
		<path id="XMLID_168_" d="M210.2,72.1v2.5h-0.9v-2.4c0-0.7-0.4-1-0.9-1c-0.6,0-1,0.4-1,1.1v2.4h-0.9v-6.6l0.9-0.1v3
			c0.3-0.4,0.7-0.6,1.3-0.6C209.6,70.4,210.2,71.1,210.2,72.1z"/>
		<path id="XMLID_170_" d="M213.8,74.7v-0.3c-0.3,0.2-0.6,0.4-1.1,0.4c-0.9,0-1.6-0.7-1.6-1.5s0.7-1.5,1.6-1.5c0.4,0,0.7,0.1,1,0.3
			v-0.2c0-0.5-0.2-0.8-0.9-0.8c-0.4,0-0.7,0.1-1,0.2l0.1-0.8c0.3-0.1,0.7-0.1,1-0.1c1.1,0,1.7,0.5,1.7,1.4v2.1v0.8H213.8z
			 M213.8,73.3c0-0.5-0.4-0.8-0.9-0.8s-0.8,0.4-0.8,0.8c0,0.5,0.4,0.8,0.8,0.8C213.4,74.1,213.8,73.7,213.8,73.3z"/>
		<path id="XMLID_173_" d="M215.5,74.4l0.1-0.8c0.4,0.3,0.8,0.4,1.2,0.4s0.6-0.2,0.6-0.5c0-0.2-0.1-0.4-0.6-0.6l-0.2-0.1
			c-0.6-0.2-1-0.7-1-1.2c0-0.7,0.5-1.2,1.4-1.2c0.4,0,0.8,0.1,1.2,0.3l-0.1,0.8c-0.4-0.2-0.8-0.3-1-0.3c-0.3,0-0.5,0.2-0.5,0.4
			c0,0.2,0.1,0.4,0.6,0.5l0.2,0.1c0.7,0.2,1.1,0.7,1.1,1.3c0,0.8-0.6,1.3-1.5,1.3C216.4,74.8,215.9,74.6,215.5,74.4z"/>
		<path id="XMLID_175_" d="M222.9,73.3l0.3,0.8c-0.5,0.5-1.2,0.7-1.9,0.7c-1.3,0-2.3-1-2.3-2.2s1-2.2,2.2-2.2c1.1,0,1.9,0.7,2,1.8
			l-3.2,1c0.2,0.4,0.7,0.7,1.2,0.7C221.8,74,222.4,73.8,222.9,73.3z M219.9,72.6l2.4-0.8c-0.2-0.4-0.6-0.6-1-0.6
			C220.5,71.2,219.9,71.8,219.9,72.6z"/>
		<path id="XMLID_178_" d="M228.5,70.4v0.9c-0.9,0-1.3,0.4-1.3,1.3v2.1h-0.9v-4.1l0.9-0.1v0.7C227.3,70.7,227.8,70.4,228.5,70.4z"/>
		<path id="XMLID_180_" d="M232.7,73.3l0.3,0.8c-0.5,0.5-1.2,0.7-1.9,0.7c-1.3,0-2.3-1-2.3-2.2s1-2.2,2.2-2.2c1.1,0,1.9,0.7,2,1.8
			l-3.2,1c0.2,0.4,0.7,0.7,1.2,0.7C231.7,74,232.2,73.8,232.7,73.3z M229.7,72.6l2.4-0.8c-0.2-0.4-0.6-0.6-1-0.6
			C230.3,71.2,229.8,71.8,229.7,72.6z"/>
		<path id="XMLID_183_" d="M238.2,67.9v6.8h-0.9v-0.6c-0.3,0.4-0.8,0.7-1.4,0.7c-1.2,0-2.1-1-2.1-2.2s1-2.2,2.1-2.2
			c0.6,0,1,0.2,1.4,0.6v-3L238.2,67.9z M237.4,72.6c0-0.8-0.6-1.4-1.3-1.4s-1.3,0.6-1.3,1.4s0.6,1.4,1.3,1.4S237.4,73.4,237.4,72.6z
			"/>
		<path id="XMLID_186_" d="M243,73.3l0.3,0.8c-0.5,0.5-1.2,0.7-1.9,0.7c-1.3,0-2.3-1-2.3-2.2s1-2.2,2.2-2.2c1.1,0,1.9,0.7,2,1.8
			l-3.2,1c0.2,0.4,0.7,0.7,1.2,0.7C242,74,242.5,73.8,243,73.3z M240,72.6l2.4-0.8c-0.2-0.4-0.6-0.6-1-0.6
			C240.7,71.2,240.1,71.8,240,72.6z"/>
		<path id="XMLID_189_" d="M247.9,73.3l0.3,0.8c-0.5,0.5-1.2,0.7-1.9,0.7c-1.3,0-2.3-1-2.3-2.2s1-2.2,2.2-2.2c1.1,0,1.9,0.7,2,1.8
			l-3.2,1c0.2,0.4,0.7,0.7,1.2,0.7C246.9,74,247.4,73.8,247.9,73.3z M244.9,72.6l2.4-0.8c-0.2-0.4-0.6-0.6-1-0.6
			C245.5,71.2,245,71.8,244.9,72.6z"/>
		<path id="XMLID_192_" d="M255.5,72.1v2.6h-0.9v-2.5c0-0.6-0.3-0.9-0.8-0.9s-0.9,0.4-0.9,1v2.4h-1v-2.5c0-0.6-0.3-0.9-0.8-0.9
			s-0.9,0.4-0.9,1v2.4h-0.9v-4.1l0.9-0.1V71c0.3-0.4,0.7-0.6,1.2-0.6s1,0.2,1.2,0.7c0.3-0.4,0.8-0.7,1.4-0.7
			C254.9,70.4,255.5,71,255.5,72.1z"/>
		<path id="XMLID_194_" d="M259,74.7v-0.3c-0.3,0.2-0.6,0.4-1.1,0.4c-0.9,0-1.6-0.7-1.6-1.5s0.7-1.5,1.6-1.5c0.4,0,0.7,0.1,1,0.3
			v-0.2c0-0.5-0.2-0.8-0.9-0.8c-0.4,0-0.7,0.1-1,0.2l0.1-0.8c0.3-0.1,0.7-0.1,1-0.1c1.1,0,1.7,0.5,1.7,1.4v2.1v0.8H259z M259,73.3
			c0-0.5-0.4-0.8-0.9-0.8s-0.8,0.4-0.8,0.8c0,0.5,0.4,0.8,0.8,0.8C258.6,74.1,259,73.7,259,73.3z"/>
		<path id="XMLID_197_" d="M265.4,72.6c0,1.3-1,2.2-2.3,2.2c-1.3,0-2.2-0.9-2.2-2.2v-4.5l1-0.1v3c0.3-0.4,0.8-0.6,1.4-0.6
			C264.4,70.4,265.4,71.3,265.4,72.6z M264.5,72.6c0-0.8-0.6-1.4-1.3-1.4c-0.8,0-1.4,0.6-1.4,1.4s0.6,1.3,1.3,1.3
			S264.5,73.4,264.5,72.6z"/>
		<path id="XMLID_200_" d="M266.4,68.1l0.9-0.1v6.8h-0.9V68.1z"/>
		<path id="XMLID_202_" d="M272.1,73.3l0.3,0.8c-0.5,0.5-1.2,0.7-1.9,0.7c-1.3,0-2.3-1-2.3-2.2s1-2.2,2.2-2.2c1.1,0,1.9,0.7,2,1.8
			l-3.2,1c0.2,0.4,0.7,0.7,1.2,0.7C271.1,74,271.6,73.8,272.1,73.3z M269.2,72.6l2.4-0.8c-0.2-0.4-0.6-0.6-1-0.6
			C269.8,71.2,269.2,71.8,269.2,72.6z"/>
	</g>
	<g id="XMLID_2_" class="st0">
		<path id="XMLID_4_" d="M76.7,85.9v-0.3C76.4,85.8,76,86,75.6,86c-0.9,0-1.6-0.7-1.6-1.5s0.7-1.5,1.6-1.5c0.4,0,0.7,0.1,1,0.3v-0.2
			c0-0.5-0.2-0.8-0.9-0.8c-0.4,0-0.7,0.1-1,0.2l0.1-0.8c0.3-0.1,0.7-0.1,1-0.1c1.1,0,1.7,0.5,1.7,1.4v2.1v0.8H76.7z M76.7,84.5
			c0-0.5-0.4-0.8-0.9-0.8S75,84,75,84.5s0.4,0.8,0.8,0.8C76.3,85.3,76.7,84.9,76.7,84.5z"/>
		<path id="XMLID_7_" d="M79.8,82.5v2c0,0.4,0.2,0.6,0.6,0.6c0.2,0,0.4-0.1,0.6-0.1v0.8c-0.2,0.1-0.4,0.1-0.7,0.1
			c-0.8,0-1.3-0.5-1.3-1.4v-2.1h-0.6l0.1-0.8H79v-0.8l0.9-0.5v1.4H81v0.8H79.8z"/>
		<path id="XMLID_9_" d="M83.9,79.4l1-0.1v6.6h-1V79.4z"/>
		<path id="XMLID_11_" d="M90.2,83.3v2.5h-0.9v-2.4c0-0.7-0.4-1-0.9-1c-0.6,0-1,0.4-1,1.1v2.4h-0.9v-4.1l0.9-0.1v0.5
			c0.3-0.4,0.8-0.6,1.3-0.6C89.5,81.6,90.2,82.3,90.2,83.3z"/>
		<path id="XMLID_13_" d="M92.5,82.5v2c0,0.4,0.2,0.6,0.6,0.6c0.2,0,0.4-0.1,0.6-0.1v0.8c-0.2,0.1-0.4,0.1-0.7,0.1
			c-0.8,0-1.3-0.5-1.3-1.4v-2.1h-0.6l0.1-0.8h0.5v-0.8l0.9-0.5v1.4h1.1v0.8H92.5z"/>
		<path id="XMLID_15_" d="M98,84.5l0.3,0.8c-0.5,0.5-1.2,0.7-1.9,0.7c-1.3,0-2.3-1-2.3-2.2s1-2.2,2.2-2.2c1.1,0,1.9,0.7,2,1.8
			l-3.2,1c0.2,0.4,0.7,0.7,1.2,0.7C97,85.2,97.5,85,98,84.5z M95,83.8l2.4-0.8c-0.2-0.4-0.6-0.6-1-0.6C95.7,82.4,95.1,83,95,83.8z"
			/>
		<path id="XMLID_18_" d="M101.7,81.6v0.9c-0.9,0-1.3,0.4-1.3,1.3v2.1h-0.9v-4.1l0.9-0.1v0.7C100.6,81.9,101,81.6,101.7,81.6z"/>
		<path id="XMLID_20_" d="M103.7,82.5v2c0,0.4,0.2,0.6,0.6,0.6c0.2,0,0.4-0.1,0.6-0.1v0.8c-0.2,0.1-0.4,0.1-0.7,0.1
			c-0.8,0-1.3-0.5-1.3-1.4v-2.1h-0.6l0.1-0.8h0.5v-0.8l0.9-0.5v1.4h1.1v0.8H103.7z"/>
		<path id="XMLID_22_" d="M105.4,83.8c0-1.2,1-2.2,2.3-2.2s2.2,1,2.2,2.2s-1,2.2-2.2,2.2C106.4,86,105.4,85,105.4,83.8z M109,83.8
			c0-0.8-0.6-1.4-1.3-1.4c-0.8,0-1.3,0.6-1.3,1.4s0.6,1.4,1.3,1.4C108.4,85.2,109,84.6,109,83.8z"/>
		<path id="XMLID_25_" d="M114.5,81.7l-2.9,6.3h-1l1.3-2.5l-1.7-3.7h1l1.2,2.8l1.2-2.8h0.9V81.7z"/>
		<path id="XMLID_27_" d="M114.9,85.6l0.1-0.8c0.4,0.3,0.8,0.4,1.2,0.4c0.4,0,0.6-0.2,0.6-0.5c0-0.2-0.1-0.4-0.6-0.6H116
			c-0.6-0.2-1-0.7-1-1.2c0-0.7,0.5-1.2,1.4-1.2c0.4,0,0.8,0.1,1.2,0.3l-0.1,0.8c-0.4-0.2-0.8-0.3-1-0.3c-0.3,0-0.5,0.2-0.5,0.4
			c0,0.2,0.1,0.4,0.6,0.5l0.2,0.1c0.7,0.2,1.1,0.7,1.1,1.3c0,0.8-0.6,1.3-1.5,1.3C115.8,86,115.3,85.8,114.9,85.6z"/>
		<path id="XMLID_29_" d="M124.1,85.9l-2.3-3.2v3.2h-1v-6.5l1-0.1v3.1l2.2-3h1.2l-2.4,3.2l2.5,3.4L124.1,85.9L124.1,85.9z"/>
		<path id="XMLID_31_" d="M125.5,83.8c0-1.2,1-2.2,2.3-2.2s2.2,1,2.2,2.2s-1,2.2-2.2,2.2C126.5,86,125.5,85,125.5,83.8z M129.1,83.8
			c0-0.8-0.6-1.4-1.3-1.4c-0.8,0-1.3,0.6-1.3,1.4s0.6,1.4,1.3,1.4C128.5,85.2,129.1,84.6,129.1,83.8z"/>
		<path id="XMLID_34_" d="M134.7,81.6v4.3h-0.9v-0.5c-0.3,0.4-0.8,0.6-1.3,0.6c-1,0-1.6-0.7-1.6-1.7v-2.5l0.9-0.1v2.5
			c0,0.7,0.4,1,0.9,1c0.6,0,1-0.4,1-1.1v-2.3L134.7,81.6z"/>
		<path id="XMLID_36_" d="M139.8,81.7l-2.2,4.4l-2.2-4.4h1l1.2,2.5l1.2-2.5H139.8z"/>
		<path id="XMLID_38_" d="M143.8,84.5l0.3,0.8c-0.5,0.5-1.2,0.7-1.9,0.7c-1.2,0-2.2-1-2.2-2.2s1-2.2,2.2-2.2c1.1,0,1.9,0.7,2,1.8
			l-3.2,1c0.2,0.4,0.7,0.7,1.2,0.7C142.8,85.2,143.3,85,143.8,84.5z M140.9,83.8l2.4-0.8c-0.2-0.4-0.6-0.6-1-0.6
			C141.5,82.4,140.9,83,140.9,83.8z"/>
		<path id="XMLID_41_" d="M149,83.3v2.5h-0.9v-2.4c0-0.7-0.4-1-0.9-1c-0.6,0-1,0.4-1,1.1v2.4h-0.9v-4.1l0.9-0.1v0.5
			c0.3-0.4,0.8-0.6,1.3-0.6C148.4,81.6,149,82.3,149,83.3z"/>
		<path id="XMLID_43_" d="M154.4,79.1v6.8h-0.9v-0.6c-0.3,0.4-0.8,0.7-1.4,0.7c-1.2,0-2.1-1-2.1-2.2s1-2.2,2.1-2.2
			c0.6,0,1,0.2,1.4,0.6v-3L154.4,79.1z M153.5,83.8c0-0.8-0.6-1.4-1.3-1.4s-1.3,0.6-1.3,1.4s0.6,1.4,1.3,1.4
			C152.9,85.2,153.5,84.6,153.5,83.8z"/>
		<path id="XMLID_46_" d="M159.2,84.5l0.3,0.8c-0.5,0.5-1.2,0.7-1.9,0.7c-1.3,0-2.3-1-2.3-2.2s1-2.2,2.2-2.2c1.1,0,1.9,0.7,2,1.8
			l-3.2,1c0.2,0.4,0.7,0.7,1.2,0.7C158.1,85.2,158.7,85,159.2,84.5z M156.2,83.8l2.4-0.8c-0.2-0.4-0.6-0.6-1-0.6
			C156.8,82.4,156.2,83,156.2,83.8z"/>
		<path id="XMLID_49_" d="M162.8,81.6v0.9c-0.9,0-1.3,0.4-1.3,1.3v2.1h-0.9v-4.1l0.9-0.1v0.7C161.7,81.9,162.2,81.6,162.8,81.6z"/>
		<path id="XMLID_51_" d="M163.4,85.6l0.1-0.8c0.4,0.3,0.8,0.4,1.2,0.4c0.4,0,0.6-0.2,0.6-0.5c0-0.2-0.1-0.4-0.6-0.6l-0.2-0.1
			c-0.6-0.2-1-0.7-1-1.2c0-0.7,0.5-1.2,1.4-1.2c0.4,0,0.8,0.1,1.2,0.3l-0.1,0.8c-0.4-0.2-0.8-0.3-1-0.3c-0.3,0-0.5,0.2-0.5,0.4
			c0,0.2,0.1,0.4,0.6,0.5l0.2,0.1c0.7,0.2,1.1,0.7,1.1,1.3c0,0.8-0.6,1.3-1.5,1.3C164.3,86,163.8,85.8,163.4,85.6z"/>
		<path id="XMLID_53_" d="M168.3,82.5v2c0,0.4,0.2,0.6,0.6,0.6c0.2,0,0.4-0.1,0.6-0.1v0.8c-0.2,0.1-0.4,0.1-0.7,0.1
			c-0.8,0-1.3-0.5-1.3-1.4v-2.1h-0.6l0.1-0.8h0.5v-0.8l0.9-0.5v1.4h1.1v0.8H168.3z"/>
		<path id="XMLID_55_" d="M172.7,81.6v0.9c-0.9,0-1.3,0.4-1.3,1.3v2.1h-0.9v-4.1l0.9-0.1v0.7C171.5,81.9,172,81.6,172.7,81.6z"/>
		<path id="XMLID_57_" d="M175.6,85.9v-0.3c-0.3,0.2-0.6,0.4-1.1,0.4c-0.9,0-1.6-0.7-1.6-1.5s0.7-1.5,1.6-1.5c0.4,0,0.7,0.1,1,0.3
			v-0.2c0-0.5-0.2-0.8-0.9-0.8c-0.4,0-0.7,0.1-1,0.2l0.1-0.8c0.3-0.1,0.7-0.1,1-0.1c1.1,0,1.7,0.5,1.7,1.4v2.1v0.8H175.6z
			 M175.6,84.5c0-0.5-0.4-0.8-0.9-0.8s-0.8,0.4-0.8,0.8c0,0.5,0.4,0.8,0.8,0.8C175.2,85.3,175.6,84.9,175.6,84.5z"/>
		<path id="XMLID_60_" d="M180,85.9v-0.3c-0.3,0.2-0.6,0.4-1.1,0.4c-0.9,0-1.6-0.7-1.6-1.5s0.7-1.5,1.6-1.5c0.4,0,0.7,0.1,1,0.3
			v-0.2c0-0.5-0.2-0.8-0.9-0.8c-0.4,0-0.7,0.1-1,0.2l0.1-0.8c0.3-0.1,0.7-0.1,1-0.1c1.1,0,1.7,0.5,1.7,1.4v2.1v0.8H180z M179.9,84.5
			c0-0.5-0.4-0.8-0.9-0.8s-0.8,0.4-0.8,0.8c0,0.5,0.4,0.8,0.8,0.8C179.6,85.3,179.9,84.9,179.9,84.5z"/>
		<path id="XMLID_63_" d="M183.1,82.5v2c0,0.4,0.2,0.6,0.6,0.6c0.2,0,0.4-0.1,0.6-0.1v0.8c-0.2,0.1-0.4,0.1-0.7,0.1
			c-0.8,0-1.3-0.5-1.3-1.4v-2.1h-0.6l0.1-0.8h0.5v-0.8l0.9-0.5v1.4h1.1v0.8H183.1z"/>
		<path id="XMLID_65_" d="M191.1,79.4l-2.6,6.5h-1.1l2.2-5.6h-3l0.2-1L191.1,79.4L191.1,79.4z"/>
		<path id="XMLID_67_" d="M195.6,83.8c0,1.2-1,2.2-2.3,2.2c-0.8,0-1.4-0.3-1.9-0.9l0.4-0.8c0.3,0.4,0.8,0.8,1.4,0.8
			c0.8,0,1.3-0.6,1.3-1.3c0-0.7-0.5-1.3-1.4-1.3c-0.2,0-0.5,0-0.8,0.1l1.5-2.4h-2.3l0.1-0.9h3.8l-1.7,2.5
			C194.9,81.9,195.6,82.8,195.6,83.8z"/>
		<path id="XMLID_69_" d="M196.8,84.5h1l-1,2.7l-0.9,0.1L196.8,84.5z"/>
		<path id="XMLID_71_" d="M206.3,79.3v6.6h-1V83h-3.4v2.8h-1v-6.5l1-0.1V82h3.4v-2.7L206.3,79.3z"/>
		<path id="XMLID_73_" d="M207.3,83.8c0-1.2,1-2.2,2.3-2.2s2.2,1,2.2,2.2s-1,2.2-2.2,2.2C208.3,86,207.3,85,207.3,83.8z M210.9,83.8
			c0-0.8-0.6-1.4-1.3-1.4c-0.8,0-1.3,0.6-1.3,1.4s0.6,1.4,1.3,1.4C210.3,85.2,210.9,84.6,210.9,83.8z"/>
		<path id="XMLID_76_" d="M216.3,84.5l0.3,0.8c-0.5,0.5-1.2,0.7-1.9,0.7c-1.3,0-2.3-1-2.3-2.2s1-2.2,2.2-2.2c1.1,0,1.9,0.7,2,1.8
			l-3.2,1c0.2,0.4,0.7,0.7,1.2,0.7C215.3,85.2,215.8,85,216.3,84.5z M213.3,83.8l2.4-0.8c-0.2-0.4-0.6-0.6-1-0.6
			C214,82.4,213.4,83,213.3,83.8z"/>
		<path id="XMLID_79_" d="M221.5,83.3v2.5h-0.9v-2.4c0-0.7-0.4-1-0.9-1c-0.6,0-1,0.4-1,1.1v2.4h-0.9v-4.1l0.9-0.1v0.5
			c0.3-0.4,0.8-0.6,1.3-0.6C220.9,81.6,221.5,82.3,221.5,83.3z"/>
		<path id="XMLID_81_" d="M222.4,85.6l0.1-0.8c0.4,0.3,0.8,0.4,1.2,0.4s0.6-0.2,0.6-0.5c0-0.2-0.1-0.4-0.6-0.6l-0.2-0.1
			c-0.6-0.2-1-0.7-1-1.2c0-0.7,0.5-1.2,1.4-1.2c0.4,0,0.8,0.1,1.2,0.3l-0.1,0.8c-0.4-0.2-0.8-0.3-1-0.3c-0.3,0-0.5,0.2-0.5,0.4
			c0,0.2,0.1,0.4,0.6,0.5l0.2,0.1c0.7,0.2,1.1,0.7,1.1,1.3c0,0.8-0.6,1.3-1.5,1.3C223.3,86,222.9,85.8,222.4,85.6z"/>
		<path id="XMLID_83_" d="M230.6,83.8c0,1.3-1,2.2-2.3,2.2s-2.2-0.9-2.2-2.2v-4.5l1-0.1v3.1c0.3-0.4,0.8-0.6,1.4-0.6
			C229.7,81.6,230.6,82.5,230.6,83.8z M229.7,83.8c0-0.8-0.6-1.4-1.3-1.4c-0.8,0-1.4,0.6-1.4,1.4s0.6,1.3,1.3,1.3
			S229.7,84.6,229.7,83.8z"/>
		<path id="XMLID_86_" d="M233.9,81.6v0.9c-0.9,0-1.3,0.4-1.3,1.3v2.1h-0.9v-4.1l0.9-0.1v0.7C232.8,81.9,233.2,81.6,233.9,81.6z"/>
		<path id="XMLID_88_" d="M234.3,83.8c0-1.2,1-2.2,2.3-2.2s2.2,1,2.2,2.2s-1,2.2-2.2,2.2C235.3,86,234.3,85,234.3,83.8z M237.9,83.8
			c0-0.8-0.6-1.4-1.3-1.4c-0.8,0-1.3,0.6-1.3,1.4s0.6,1.4,1.3,1.4C237.3,85.2,237.9,84.6,237.9,83.8z"/>
		<path id="XMLID_91_" d="M243.3,84.5l0.3,0.8c-0.5,0.5-1.2,0.7-1.9,0.7c-1.3,0-2.3-1-2.3-2.2s1-2.2,2.2-2.2c1.1,0,1.9,0.7,2,1.8
			l-3.2,1c0.2,0.4,0.7,0.7,1.2,0.7C242.3,85.2,242.8,85,243.3,84.5z M240.3,83.8l2.4-0.8c-0.2-0.4-0.6-0.6-1-0.6
			C240.9,82.4,240.3,83,240.3,83.8z"/>
		<path id="XMLID_94_" d="M247.2,85.9l-1.6-2v2h-0.9v-6.6l0.9-0.1v4.5l1.5-1.9h1.2l-1.7,2l1.8,2.2L247.2,85.9L247.2,85.9z"/>
		<path id="XMLID_96_" d="M249.1,85.3c0-0.4,0.3-0.7,0.7-0.7s0.7,0.3,0.7,0.7c0,0.4-0.3,0.7-0.7,0.7C249.5,86,249.1,85.7,249.1,85.3
			z"/>
	</g>
</g>
</svg>
