<?xml version="1.0" encoding="utf-8"?>
<!-- Generator: Adobe Illustrator 19.0.0, SVG Export Plug-In . SVG Version: 6.00 Build 0)  -->
<svg version="1.1" id="Layer_1" xmlns="http://www.w3.org/2000/svg" xmlns:xlink="http://www.w3.org/1999/xlink" x="0px" y="0px"
	 viewBox="0 0 155.9 155.9" style="enable-background:new 0 0 155.9 155.9;" xml:space="preserve">
<g id="XMLID_164_">
	<g id="XMLID_127_">
		<g id="XMLID_133_">
			<path id="XMLID_140_" d="M11.6,12.3c2-2,5.2-2,7.2,0.1s2.1,5.2,0.1,7.2s-5.2,2-7.2-0.1C9.7,17.5,9.6,14.3,11.6,12.3z M17.5,18.1
				c1.3-1.3,1.2-3.2,0-4.5c-1.2-1.2-3.2-1.2-4.5,0c-1.2,1.2-1.2,3.2,0,4.5C14.3,19.5,16.2,19.4,17.5,18.1z"/>
			<path id="XMLID_139_" d="M19.1,21.4l4.2-4.2l1.6,1.2l-4.2,4.2c-0.9,0.9-1,2.1-0.2,2.9s1.9,0.8,2.9-0.2l4.1-4.1l1.6,1.2l-4.3,4.3
				c-1.6,1.6-3.9,1.6-5.5,0C17.4,25.2,17.4,23,19.1,21.4z"/>
			<path id="XMLID_138_" d="M31.5,27.9l-5.6,5.6l-1.4-1.4l5.6-5.6l-1.8-1.8l1.5-1.1l4.6,4.6l-1.1,1.5L31.5,27.9z"/>
			<path id="XMLID_137_" d="M37.6,36.3c-1.4,1.4-3.5,1.3-5.1-0.2l-0.6-0.6l-2,2l-1.4-1.4l6.8-6.8l2,2C38.9,32.7,39.1,34.9,37.6,36.3
				z M36.2,34.9c0.7-0.7,0.6-1.8-0.1-2.6l-0.5-0.5l-2.5,2.5l0.5,0.5C34.4,35.5,35.5,35.6,36.2,34.9z"/>
			<path id="XMLID_136_" d="M37.4,38c2-2,5.2-2,7.2,0.1s2.1,5.2,0.1,7.2s-5.2,2-7.2-0.1S35.3,40,37.4,38z M43.2,43.8
				c1.3-1.3,1.2-3.2,0-4.5c-1.2-1.2-3.2-1.2-4.5,0s-1.2,3.2,0,4.5C40,45.2,41.9,45.1,43.2,43.8z"/>
			<path id="XMLID_135_" d="M47.7,52.8l-1.4,1.1l-4-4l6.9-6.9l3.9,3.9L52,48.3l-2.7-2.7l-1.5,1.5l2.2,2.2l-1.2,1.2l-2.2-2.2L45,49.9
				L47.7,52.8z"/>
			<path id="XMLID_134_" d="M55.8,52.2l-5.6,5.6l-1.4-1.4l5.6-5.6L52.6,49l1.5-1.1l4.6,4.6L57.6,54L55.8,52.2z"/>
		</g>
		<g id="XMLID_128_">
			<g id="XMLID_131_">
				<polygon id="XMLID_132_" points="69.8,66.2 70.8,64.6 68.5,62.3 71.8,62.3 72.2,60.5 68.1,60.5 70.8,57.8 69.8,56.3 66.4,59.7 
					67.4,60.7 67.4,61.8 66.7,62.5 65.6,62.5 64.9,61.8 64.9,60.7 65.9,59.7 62.7,56.5 61.2,57.6 64.1,60.5 60.1,60.5 60.4,62.3 
					63.8,62.3 61.2,64.9 62.7,65.9 65.4,63.3 65.4,67.3 67.2,67 67.2,63.6 				"/>
			</g>
			<g id="XMLID_129_">
				<polygon id="XMLID_130_" points="67.4,61.2 67.4,61.6 67.4,61.3 				"/>
			</g>
		</g>
	</g>
	<g id="XMLID_117_">
		<path id="XMLID_126_" d="M136.1,133.1c1.1-0.5,2.2-0.9,3.3-1.5c0.4-0.2,0.8-0.4,1.2-0.5c0.4-0.2,0.6-0.2,0.8,0.2
			c0.3,0.5,0.6,1.1,0.9,1.6c0.2,0.3,0.1,0.5-0.2,0.7c-1.6,0.9-3.2,1.6-4.9,2.2c-2.8,1-5.6,1.6-8.5,1.9c-0.6,0.1-0.7,0-0.8-0.6
			s-0.1-1.2-0.2-1.8c-0.1-0.4,0.1-0.7,0.6-0.7c1.2-0.2,2.5-0.4,3.8-0.6c0.3-0.1,0.4-0.2,0.5-0.4c0.8-2.3,1.8-4.8,3.1-6.9
			c0.3-0.5,0.4-0.5,0.9-0.3c0.5,0.3,1.1,0.6,1.6,0.9c0.3,0.2,0.3,0.4,0.2,0.8c-0.5,1-1.1,2.1-1.5,3.2
			C136.5,131.9,136.3,132.5,136.1,133.1C136,133,136.1,133.1,136.1,133.1z"/>
		<path id="XMLID_125_" d="M99.2,94c0.8,0,1.4,0.4,1.9,0.9c0.3,0.3,0.6,0.6,0.8,0.9c0.9,1.2,0.8,2.7-0.2,3.9
			c-0.6,0.7-1.3,1.4-2.1,2.1c-0.9,0.8-1.8,1.6-2.7,2.3c-0.2,0.2-0.5,0.2-0.7,0c-0.5-0.5-1.1-1.1-1.5-1.5c-0.3-0.3-0.2-0.5,0.1-0.8
			c1.1-0.9,2.2-1.9,3.2-2.9c0.2-0.2,0.6-0.5,0.8-0.8c0.5-0.7,0.5-1.3-0.1-1.9s-1.4-0.7-2-0.2c-0.4,0.2-0.6,0.5-0.9,0.8
			c-1,0.9-1.9,1.8-2.9,2.7c-0.2,0.2-0.5,0.2-0.7,0c-0.5-0.5-0.9-1.1-1.5-1.6c-0.2-0.2-0.2-0.5,0.1-0.8c2-1.9,4.1-3.7,6-5.5
			c0.5-0.5,0.6-0.5,1.2,0.1c0.4,0.4,0.8,0.8,1.2,1.2c0.3,0.3,0.4,0.6,0.1,0.9C99.3,93.8,99.3,93.8,99.2,94z"/>
		<path id="XMLID_124_" d="M109.5,108.1c-0.7,0.5-0.9,1.3-0.6,2.1c0.4,1,1.2,1.7,2.2,2.1c0.6,0.2,0.6,0.4,0.5,0.9
			c-0.2,0.4-0.4,0.9-0.6,1.4c-0.1,0.1-0.4,0.2-0.5,0.2c-2.1-0.5-4.1-2.9-4.2-5.1c-0.2-1.6,0.4-3,1.6-4.1s2.6-1.7,4.3-1.6
			c3.2,0.3,5.3,4.2,3.2,7c-0.5,0.7-1.2,1.2-1.8,1.6c-0.2,0.1-0.4,0-0.5-0.1c-0.8-1.1-1.6-2.2-2.5-3.3
			C110.1,108.9,109.8,108.4,109.5,108.1z M111.1,106.9c0.6,0.8,1.2,1.6,1.8,2.4c0.7-0.5,0.9-1.2,0.5-2
			C112.9,106.6,112,106.4,111.1,106.9z"/>
		<path id="XMLID_123_" d="M132.2,130.3c-1.9,1.9-4.9,1.8-6.9-0.1c-1.9-1.9-1.9-4.9,0.1-6.9c1.9-1.9,4.9-1.9,6.9,0.1
			C134.4,125.4,134.2,128.3,132.2,130.3z M130.3,125.5c-0.8-0.8-1.9-0.9-2.8-0.1c-0.9,0.9-1.1,2.1-0.3,2.9s1.9,0.9,2.8,0.1
			C131,127.4,131.1,126.3,130.3,125.5z"/>
		<path id="XMLID_122_" d="M137.1,144.1c-1.2-1.3-1.7-2.8-1.8-4.5c0-0.1,0.2-0.4,0.4-0.5c0.5-0.2,1-0.3,1.5-0.4
			c0.4-0.1,0.5,0,0.6,0.5c0.1,0.7,0.2,1.4,0.4,2.1c0.1,0.4,0.4,0.6,0.6,0.9c0.1,0.1,0.5,0.2,0.6,0.1c0.2-0.1,0.3-0.4,0.2-0.6
			c-0.1-0.4-0.2-0.8-0.4-1.2c-0.1-0.4-0.3-0.8-0.4-1.1c-0.5-1.9,0.8-3.7,2.8-3.8c1.1-0.1,2,0.6,2.6,1.4c0.9,1,1.4,2.2,1.6,3.4
			c0.1,0.6,0.1,0.6-0.5,0.9c-0.5,0.1-0.9,0.2-1.3,0.2c-0.4,0.1-0.5-0.1-0.5-0.4c-0.2-0.6-0.4-1.3-0.6-1.9c-0.1-0.2-0.4-0.5-0.6-0.6
			c-0.5-0.2-0.9,0.2-0.8,0.6c0.1,0.4,0.2,0.7,0.4,0.9c0.2,0.4,0.4,0.8,0.5,1.2c0.5,1.7-0.2,3-1.8,3.5
			C139.3,145.6,138.1,145.1,137.1,144.1z"/>
		<path id="XMLID_121_" d="M121.7,117.7c-0.1-0.2-0.2-0.4-0.4-0.6c-0.2-0.4-0.2-0.6,0.1-0.8c0.4-0.2,0.7-0.5,1.1-0.7
			s0.6-0.2,0.9,0.2c0.5,0.6,0.5,0.6,1.2,0.2c0.3-0.2,0.6-0.4,0.8-0.5c0.3-0.2,0.5-0.1,0.7,0.1c0.4,0.5,0.9,1.1,1.2,1.7
			c0.2,0.3,0.1,0.5-0.1,0.6c-0.5,0.4-1.1,0.8-1.6,1.2c0.3,0.5,0.6,1.1,0.9,1.5c0.2,0.3,0.2,0.5-0.1,0.7c-0.4,0.3-0.8,0.6-1.2,0.8
			s-0.6,0.1-0.8-0.2c-0.4-0.5-0.7-1.1-1.1-1.6c-0.8,0.5-1.5,0.9-2.3,1.5c-0.3,0.2-0.6,0.4-0.8,0.5c-0.5,0.4-0.5,0.8-0.1,1.2
			c0.2,0.2,0.4,0.4,0.6,0.5c0.5,0.4,0.5,0.4,0.2,0.9c-0.3,0.4-0.6,0.8-1,1.1c-0.1,0.1-0.4,0.2-0.6,0.1c-1.4-0.4-2.7-2.3-2.7-3.8
			c0-1.1,0.6-1.8,1.5-2.4C119.4,119.2,120.5,118.4,121.7,117.7z"/>
		<path id="XMLID_120_" d="M106.3,102.3c-0.8,0.9-1.5,1.9-2.2,2.8c-0.4,0.5-0.1,1.1,0.4,1.4c0.2,0.1,0.5,0.2,0.8,0.3
			c0.3,0.1,0.5,0.2,0.3,0.5c-0.2,0.5-0.4,1-0.7,1.5c-0.1,0.2-0.4,0.3-0.6,0.2c-1.2-0.1-2.1-0.7-2.9-1.5c-1.2-1.3-1.2-2.8,0-4.1
			c0.4-0.5,0.9-1,1.2-1.5c0.4-0.5,0.9-1,1.2-1.5c-0.2-0.2-0.4-0.4-0.6-0.6s-0.2-0.4-0.1-0.6c0.4-0.5,0.6-0.9,1.1-1.3
			c0.2-0.2,0.4-0.2,0.6-0.1s0.5,0.4,0.8,0.5c0.3-0.4,0.7-0.8,1-1.2c0.4-0.5,0.5-0.5,1.1-0.2c0.5,0.3,1,0.6,1.5,1
			c0.3,0.2,0.4,0.5,0.1,0.8c-0.4,0.5-0.8,1-1.1,1.6c0.5,0.4,0.9,0.8,1.4,1.2c0.3,0.3,0.4,0.5,0.1,0.8c-0.3,0.4-0.6,0.8-0.9,1.2
			c-0.2,0.2-0.5,0.2-0.6,0.1C107.4,103.2,106.9,102.8,106.3,102.3z"/>
		<path id="XMLID_119_" d="M98.1,84.7c0.2,0.2,0.2,0.5,0.1,0.8c-1.2,1.7-2.5,3.5-3.8,5.2c-1.2,1.6-2.5,3.3-3.7,4.9
			c-0.4,0.5-0.5,0.6-1.1,0.2s-1.2-0.9-1.9-1.4c-0.3-0.2-0.4-0.5-0.1-0.8c2.2-3,4.4-6,6.6-9c0.3-0.4,0.6-0.8,0.9-1.2
			c0.2-0.3,0.5-0.4,0.8-0.2C96.7,83.7,97.4,84.1,98.1,84.7z"/>
		<path id="XMLID_118_" d="M120.3,111.7c1.1-0.4,2.1-0.1,2.9,0.5c0.4,0.3,0.5,0.5,0.2,0.9c-0.5,0.6-1,1.1-1.5,1.7
			c-0.2,0.2-0.4,0.2-0.6,0s-0.4-0.4-0.6-0.5c-0.8-0.6-1.8-0.5-2.3,0.4c-0.8,1.2-1.5,2.5-2.2,3.9c-0.5,0.9-0.5,0.9-1.4,0.4
			c-0.5-0.3-1-0.6-1.5-1c-0.4-0.2-0.4-0.5-0.1-0.8c0.7-1.1,1.4-2.2,2.1-3.2c0.9-1.4,1.7-2.8,2.6-4.1c0.4-0.6,0.5-0.6,1.1-0.4
			s1.1,0.6,1.6,0.8c0.4,0.2,0.4,0.4,0.2,0.8C120.4,111.3,120.4,111.5,120.3,111.7z"/>
	</g>
	<polygon id="XMLID_116_" points="91.6,78.7 91.6,77.6 79.6,77.6 79.6,65.6 78.5,65.6 78.5,77.6 66.6,77.6 66.5,78.7 78.5,78.7 
		78.5,90.7 79.7,90.7 79.6,78.7 	"/>
</g>
</svg>
