<?xml version="1.0" encoding="utf-8"?>
<!-- Generator: Adobe Illustrator 19.0.0, SVG Export Plug-In . SVG Version: 6.00 Build 0)  -->
<svg version="1.1" id="Layer_1" xmlns="http://www.w3.org/2000/svg" xmlns:xlink="http://www.w3.org/1999/xlink" x="0px" y="0px"
	 viewBox="42 0 240.9 155.9" style="enable-background:new 42 0 240.9 155.9;" xml:space="preserve">
<g id="XMLID_79_">
	<g id="XMLID_91_">
		<g id="XMLID_97_">
			<path id="XMLID_104_" d="M52,79.3c0-3.4,2.7-6,6.1-6c3.4,0,6.1,2.7,6.1,6s-2.7,6-6.1,6C54.8,85.3,52,82.7,52,79.3z M61.9,79.3
				c0-2.2-1.7-3.7-3.7-3.7s-3.7,1.7-3.7,3.7c0,2.1,1.7,3.7,3.7,3.7C60.3,83.1,61.9,81.5,61.9,79.3z"/>
			<path id="XMLID_103_" d="M65.9,80.7v-7l2.4-0.3v7.1c0,1.6,0.9,2.6,2.3,2.6s2.3-1,2.3-2.6v-6.8l2.4-0.3v7.3c0,2.8-1.9,4.6-4.6,4.6
				C68,85.3,65.9,83.4,65.9,80.7z"/>
			<path id="XMLID_102_" d="M81.8,75.7v9.4h-2.4v-9.4h-3.1l0.4-2.2h7.8l0.3,2.2H81.8z"/>
			<path id="XMLID_101_" d="M94,77.6c0,2.4-1.9,4-4.4,4h-1.1V85h-2.4V73.6h3.4C92.1,73.6,94,75.2,94,77.6z M91.7,77.6
				c0-1.2-1-2.1-2.3-2.1h-0.9v4.1h0.9C90.7,79.7,91.7,78.8,91.7,77.6z"/>
			<path id="XMLID_100_" d="M95.2,79.3c0-3.4,2.7-6,6.1-6c3.4,0,6.1,2.7,6.1,6s-2.7,6-6.1,6S95.2,82.7,95.2,79.3z M105.1,79.3
				c0-2.2-1.7-3.7-3.7-3.7s-3.7,1.7-3.7,3.7c0,2.1,1.7,3.7,3.7,3.7C103.5,83.1,105.1,81.5,105.1,79.3z"/>
			<path id="XMLID_99_" d="M116.3,83l-0.3,2.1h-6.7V73.6h6.5l0.3,2.1h-4.5v2.6h3.6v2.1h-3.6v2.8h4.7V83z"/>
			<path id="XMLID_98_" d="M122.6,75.7v9.4h-2.4v-9.4h-3.1l0.4-2.2h7.7l0.3,2.2H122.6z"/>
		</g>
		<g id="XMLID_92_">
			<g id="XMLID_95_">
				<polygon id="XMLID_96_" points="146.1,75.7 145.7,73.6 141.9,73.6 144.6,70.8 143.4,68.9 140,72.4 140,67.8 137.8,67.4 
					137.8,73.2 139.5,73.2 140.4,74.1 140.4,75.2 139.5,76.1 138.3,76.1 137.4,75.2 137.4,73.6 132.1,73.6 131.7,75.7 136.5,75.7 
					133.2,79.1 135.1,80.4 137.8,77.5 137.8,81.8 140,81.5 140,77 143.3,80.4 144.6,78.6 141.8,75.7 				"/>
			</g>
			<g id="XMLID_93_">
				<polygon id="XMLID_94_" points="139.9,73.6 140.3,74 140,73.7 				"/>
			</g>
		</g>
	</g>
	<g id="XMLID_81_">
		<path id="XMLID_90_" d="M258,76.2c0.5-1.4,1.1-2.7,1.6-4c0.2-0.5,0.4-1,0.6-1.5s0.4-0.7,0.9-0.5c0.7,0.2,1.5,0.4,2.2,0.6
			c0.4,0.1,0.5,0.4,0.4,0.8c-0.6,2.1-1.4,4-2.3,6c-1.5,3.2-3.4,6-5.5,8.8c-0.5,0.6-0.6,0.6-1.2,0.2c-0.6-0.4-1.1-0.9-1.7-1.3
			c-0.4-0.3-0.5-0.7-0.1-1.1c0.9-1.2,1.8-2.5,2.7-3.7c0.2-0.3,0.2-0.5,0.1-0.8c-1.3-2.7-2.5-5.5-3.3-8.4c-0.2-0.7-0.1-0.8,0.5-1
			c0.7-0.2,1.5-0.4,2.2-0.6c0.4-0.1,0.6,0.1,0.8,0.5c0.4,1.3,0.9,2.7,1.4,3.9C257.4,74.8,257.7,75.5,258,76.2
			C257.9,76.2,258,76.2,258,76.2z"/>
		<path id="XMLID_89_" d="M194.2,74.4c0.7-0.7,1.5-0.9,2.4-0.9c0.5,0,1,0,1.5,0.1c1.8,0.3,3,1.6,3.2,3.5c0.1,1.1,0.1,2.3,0,3.5
			c-0.1,1.4-0.2,2.9-0.3,4.2c0,0.4-0.2,0.6-0.6,0.6c-0.9,0-1.8,0-2.6,0c-0.5,0-0.6-0.3-0.6-0.7c0.1-1.7,0.2-3.5,0.3-5.1
			c0-0.4,0.1-0.9,0-1.3c-0.2-1-0.7-1.5-1.7-1.5s-1.8,0.6-1.9,1.5c-0.1,0.5-0.1,1-0.1,1.5c-0.1,1.6-0.1,3.2-0.2,4.7
			c0,0.4-0.2,0.6-0.6,0.6c-0.9,0-1.7-0.1-2.6-0.1c-0.4,0-0.6-0.2-0.6-0.7c0.1-3.3,0.3-6.5,0.4-9.7c0-0.9,0.1-1,1.1-1
			c0.7,0,1.3,0,2,0C193.8,73.6,194.1,73.8,194.2,74.4C194.1,74.2,194.1,74.2,194.2,74.4z"/>
		<path id="XMLID_88_" d="M214.7,77.6c-0.2,1,0.3,1.9,1.3,2.3c1.2,0.5,2.5,0.4,3.6-0.1c0.7-0.3,0.9-0.2,1.2,0.4
			c0.2,0.5,0.4,1.1,0.6,1.7c0,0.2-0.1,0.5-0.3,0.6c-2.2,1.3-5.8,1-7.8-0.7c-1.5-1.2-2.2-2.9-2.1-4.7c0.1-2,0.8-3.6,2.3-4.9
			c3-2.5,8-1,8.6,3.2c0.2,1,0,2-0.2,2.9c-0.1,0.3-0.3,0.3-0.5,0.3c-1.6-0.2-3.3-0.5-4.8-0.7C215.8,77.7,215.2,77.6,214.7,77.6z
			 M215,75.2c1.2,0.2,2.4,0.3,3.6,0.5c0.2-1-0.3-1.8-1.3-2.1C216.3,73.5,215.3,74.1,215,75.2z"/>
		<path id="XMLID_87_" d="M252.4,77.2c0,3.3-2.6,5.6-5.9,5.7c-3.3,0-5.7-2.6-5.7-5.9s2.6-5.7,5.9-5.7
			C250.1,71.2,252.4,73.8,252.4,77.2z M246.8,74.7c-1.4,0-2.4,0.9-2.4,2.3c0,1.5,0.9,2.7,2.2,2.7c1.4,0,2.4-0.9,2.4-2.3
			C248.9,75.7,248.1,74.7,246.8,74.7z"/>
		<path id="XMLID_86_" d="M268.1,84.7c-2.1-0.1-3.7-0.9-5.2-2.3c-0.1-0.1-0.2-0.5-0.1-0.7c0.3-0.6,0.6-1.1,0.9-1.6
			c0.3-0.4,0.4-0.4,0.9-0.1c0.7,0.5,1.4,1,2.1,1.4c0.4,0.2,0.9,0.2,1.3,0.2c0.2,0,0.6-0.3,0.6-0.5c0.1-0.2-0.1-0.6-0.3-0.7
			c-0.4-0.3-0.9-0.5-1.3-0.7c-0.4-0.2-0.9-0.4-1.3-0.6c-2.1-1.2-2.5-3.7-0.8-5.5c0.9-1,2.2-1.2,3.4-1.1c1.6,0.1,3,0.7,4.2,1.5
			c0.6,0.4,0.6,0.5,0.3,1.2c-0.3,0.5-0.6,0.9-0.9,1.3c-0.2,0.4-0.5,0.3-0.8,0.1c-0.7-0.4-1.4-0.8-2.1-1.1c-0.3-0.1-0.8-0.1-1.1,0
			c-0.6,0.2-0.6,0.9-0.1,1.2c0.4,0.2,0.8,0.4,1.1,0.5c0.5,0.2,1,0.4,1.4,0.6c1.9,1,2.4,2.7,1.5,4.4C271.2,84,269.8,84.6,268.1,84.7z
			"/>
		<path id="XMLID_85_" d="M233,75.3c-0.3-0.1-0.5-0.2-0.8-0.2c-0.5-0.1-0.7-0.4-0.6-0.8c0.1-0.5,0.2-1,0.3-1.5s0.4-0.7,0.9-0.6
			c1,0.1,1,0.1,1.2-0.9c0.1-0.4,0.2-0.8,0.3-1.1c0.1-0.4,0.3-0.5,0.7-0.5c0.8,0.1,1.7,0.2,2.5,0.4c0.4,0.1,0.5,0.3,0.4,0.6
			c-0.1,0.8-0.2,1.6-0.4,2.4c0.7,0.2,1.4,0.4,2.1,0.5c0.4,0.1,0.6,0.3,0.5,0.7c-0.1,0.6-0.2,1.2-0.3,1.7s-0.5,0.6-0.9,0.5
			c-0.7-0.1-1.5-0.3-2.3-0.4c-0.2,1.1-0.5,2.1-0.7,3.2c-0.1,0.4-0.2,0.8-0.2,1.1c-0.1,0.7,0.3,1.1,1,1.1c0.3,0,0.6,0,1-0.1
			c0.7-0.1,0.8-0.1,0.9,0.6c0.1,0.6,0.1,1.2,0.1,1.8c0,0.2-0.2,0.5-0.4,0.6c-1.5,0.8-4.2,0.3-5.4-0.9c-0.9-0.9-1-2.1-0.8-3.3
			C232.3,78.6,232.6,77,233,75.3z"/>
		<path id="XMLID_84_" d="M207.2,75.4c0.1,1.5,0.3,2.9,0.5,4.2c0.1,0.7,0.8,1,1.5,0.8c0.3-0.1,0.6-0.3,0.9-0.4
			c0.3-0.2,0.6-0.2,0.7,0.2c0.3,0.6,0.5,1.2,0.7,1.9c0.1,0.2-0.1,0.6-0.3,0.7c-1.1,0.9-2.4,1.2-3.6,1.2c-2.1-0.1-3.4-1.3-3.5-3.5
			c-0.1-0.8-0.1-1.6-0.2-2.3c-0.1-0.8-0.1-1.6-0.2-2.3c-0.4,0-0.7,0-1,0s-0.5-0.1-0.6-0.4c-0.1-0.7-0.2-1.3-0.2-2
			c0-0.4,0.2-0.5,0.5-0.6s0.7-0.1,1.1-0.2c-0.1-0.6-0.1-1.3-0.2-1.9c-0.1-0.7,0-0.9,0.7-1.1s1.4-0.3,2.1-0.4
			c0.4-0.1,0.7,0.1,0.7,0.6c0.1,0.8,0.2,1.5,0.4,2.3c0.7-0.1,1.4-0.1,2.2-0.2c0.5,0,0.7,0.1,0.8,0.6c0.1,0.6,0.1,1.2,0.2,1.8
			c0,0.4-0.2,0.6-0.5,0.6C208.7,75.2,208,75.3,207.2,75.4z"/>
		<path id="XMLID_83_" d="M185.5,67.4c0.4,0,0.6,0.2,0.7,0.6c0.4,2.5,0.8,5,1.2,7.5c0.4,2.4,0.7,4.8,1,7.2c0.1,0.8,0.1,0.9-0.8,1.1
			c-0.9,0.2-1.8,0.3-2.8,0.5c-0.4,0.1-0.7-0.1-0.7-0.6c-0.7-4.3-1.4-8.8-2.1-13.1c-0.1-0.6-0.1-1.2-0.2-1.8
			c-0.1-0.4,0.1-0.7,0.5-0.8C183.4,67.8,184.4,67.6,185.5,67.4z"/>
		<path id="XMLID_82_" d="M226.8,71.6c0.6-1.2,1.7-1.8,2.9-2c0.6-0.1,0.9,0,0.9,0.6c0.1,0.9,0.1,1.8,0.2,2.7c0,0.3-0.2,0.5-0.5,0.5
			s-0.6,0-0.9,0.1c-1.2,0.2-1.9,1.1-1.6,2.3c0.4,1.7,0.9,3.4,1.4,5.1c0.3,1.2,0.3,1.2-0.9,1.5c-0.7,0.2-1.4,0.3-2.1,0.4
			c-0.5,0.1-0.7-0.1-0.8-0.6c-0.3-1.5-0.7-3-1-4.4c-0.4-1.9-0.9-3.7-1.3-5.6c-0.2-0.8-0.1-0.9,0.6-1.2c0.7-0.3,1.4-0.4,2.1-0.7
			c0.5-0.2,0.7,0,0.9,0.5C226.6,71.1,226.7,71.3,226.8,71.6z"/>
	</g>
	<polygon id="XMLID_80_" points="175,67.9 174,67 164,77 153.9,67 153,67.9 163.1,78 153,88 153.9,89 164,78.9 174,89 175,88 
		164.9,78 	"/>
</g>
</svg>
